<svg id="svg" version="1.1" xmlns="http://www.w3.org/2000/svg" xmlns:xlink="http://www.w3.org/1999/xlink" width="400" height="250.36496350364965" viewBox="0, 0, 400,250.36496350364965"><g id="svgg"><path id="path0" d="M44.083 0.204 C 44.083 0.316,43.575 0.369,42.956 0.322 C 42.336 0.276,41.828 0.341,41.828 0.467 C 41.828 0.593,41.688 0.691,41.515 0.684 C 40.742 0.655,40.307 0.769,40.429 0.967 C 40.502 1.085,40.255 1.146,39.880 1.103 C 39.111 1.014,37.570 1.491,37.570 1.818 C 37.570 1.937,37.471 1.972,37.349 1.896 C 37.029 1.699,35.500 2.273,35.110 2.736 C 34.927 2.953,34.849 2.990,34.937 2.818 C 35.119 2.459,34.781 2.397,34.427 2.725 C 34.296 2.846,33.765 3.081,33.248 3.246 C 32.730 3.412,32.369 3.649,32.447 3.774 C 32.524 3.899,32.423 3.939,32.223 3.862 C 31.790 3.696,29.806 4.654,29.806 5.029 C 29.806 5.172,29.693 5.220,29.555 5.135 C 29.418 5.049,29.305 5.075,29.305 5.192 C 29.305 5.308,29.054 5.423,28.746 5.446 C 28.439 5.469,28.072 5.634,27.931 5.812 C 27.790 5.991,27.507 6.174,27.303 6.219 C 27.098 6.265,26.860 6.415,26.775 6.554 C 26.689 6.692,26.567 6.768,26.503 6.721 C 26.308 6.580,23.294 8.529,23.294 8.797 C 23.294 8.934,23.190 8.982,23.063 8.904 C 22.937 8.826,22.430 9.143,21.936 9.608 C 21.443 10.073,21.039 10.405,21.039 10.346 C 21.039 10.287,20.536 10.600,19.920 11.042 C 19.305 11.484,18.871 11.959,18.957 12.098 C 19.043 12.237,18.999 12.280,18.860 12.194 C 18.535 11.993,17.466 13.119,17.718 13.396 C 17.823 13.511,17.773 13.528,17.607 13.433 C 17.238 13.221,16.247 14.020,16.457 14.360 C 16.540 14.495,16.495 14.534,16.356 14.448 C 16.031 14.248,14.962 15.373,15.214 15.650 C 15.318 15.766,15.275 15.786,15.118 15.697 C 14.748 15.485,12.952 17.464,13.180 17.832 C 13.280 17.995,13.239 18.041,13.082 17.944 C 12.743 17.735,9.678 21.442,9.897 21.796 C 9.984 21.938,9.963 22.023,9.850 21.985 C 9.736 21.947,9.619 22.005,9.589 22.113 C 9.560 22.221,9.362 22.484,9.149 22.697 C 8.936 22.909,8.828 23.190,8.908 23.320 C 8.988 23.450,8.961 23.526,8.848 23.488 C 8.734 23.450,8.605 23.532,8.561 23.669 C 8.517 23.807,8.335 24.001,8.158 24.100 C 7.348 24.553,3.855 31.098,4.150 31.609 C 4.254 31.788,4.242 31.847,4.124 31.740 C 3.842 31.483,2.429 34.507,2.610 34.979 C 2.687 35.179,2.642 35.276,2.511 35.195 C 2.281 35.053,1.513 37.276,1.435 38.312 C 1.414 38.593,1.303 38.823,1.188 38.823 C 1.074 38.823,1.003 38.964,1.030 39.136 C 1.058 39.308,1.015 39.618,0.935 39.825 C 0.487 40.980,0.267 42.021,0.364 42.524 C 0.426 42.844,0.371 43.030,0.237 42.947 C 0.089 42.856,0.000 47.284,0.000 54.741 C 0.000 67.065,0.144 69.015,1.238 71.509 C 1.682 72.523,1.831 73.019,1.782 73.325 C 1.754 73.497,1.856 73.638,2.008 73.638 C 2.159 73.638,2.214 73.751,2.129 73.889 C 2.044 74.026,2.065 74.139,2.177 74.139 C 2.288 74.139,2.394 74.394,2.412 74.705 C 2.456 75.475,3.886 78.435,4.107 78.214 C 4.205 78.116,4.216 78.214,4.133 78.432 C 3.943 78.927,6.110 83.057,6.510 82.962 C 6.669 82.924,6.727 83.011,6.638 83.154 C 6.451 83.458,7.437 85.160,7.800 85.160 C 7.934 85.160,7.985 85.256,7.912 85.375 C 7.839 85.493,8.227 86.189,8.774 86.923 C 9.321 87.656,9.768 88.325,9.768 88.410 C 9.768 88.494,10.312 89.152,10.976 89.870 C 11.640 90.589,12.149 91.211,12.107 91.254 C 12.065 91.296,12.446 91.717,12.955 92.190 C 13.463 92.663,13.715 92.824,13.514 92.549 C 13.176 92.084,13.182 92.073,13.594 92.396 C 13.838 92.588,13.983 92.800,13.916 92.868 C 13.684 93.099,14.302 93.940,14.579 93.769 C 14.735 93.673,14.785 93.712,14.694 93.859 C 14.493 94.184,15.124 94.742,15.404 94.487 C 15.517 94.385,15.532 94.437,15.437 94.602 C 15.254 94.922,16.662 96.107,17.081 95.986 C 17.212 95.948,17.254 96.024,17.173 96.155 C 16.872 96.642,22.274 100.944,22.918 100.730 C 23.056 100.684,23.085 100.731,22.982 100.833 C 22.716 101.099,23.737 101.756,24.084 101.541 C 24.252 101.437,24.305 101.472,24.211 101.625 C 24.039 101.903,25.189 102.776,25.728 102.776 C 25.904 102.776,26.049 102.862,26.049 102.966 C 26.049 103.071,26.359 103.322,26.738 103.523 C 27.116 103.725,28.186 104.304,29.115 104.810 C 30.044 105.316,30.918 105.660,31.057 105.574 C 31.195 105.488,31.309 105.520,31.309 105.645 C 31.309 106.001,33.232 106.779,33.580 106.564 C 33.769 106.447,33.827 106.475,33.728 106.635 C 33.544 106.933,34.238 107.277,34.587 107.062 C 34.713 106.984,34.815 107.032,34.815 107.167 C 34.815 107.499,36.495 108.034,36.968 107.853 C 37.176 107.773,37.284 107.807,37.209 107.929 C 37.044 108.196,37.772 108.513,38.094 108.314 C 38.219 108.237,38.322 108.276,38.322 108.401 C 38.322 108.747,44.786 110.279,45.577 110.121 C 45.955 110.045,46.377 110.096,46.515 110.235 C 47.048 110.767,57.736 111.079,60.989 110.657 C 61.540 110.586,62.195 110.511,62.444 110.492 C 62.694 110.473,62.839 110.363,62.769 110.249 C 62.698 110.134,63.114 110.080,63.693 110.129 C 64.297 110.179,65.816 109.940,67.251 109.569 C 68.629 109.212,70.066 108.859,70.445 108.784 C 70.823 108.708,71.133 108.540,71.133 108.410 C 71.133 108.280,71.244 108.242,71.379 108.325 C 71.514 108.408,71.880 108.336,72.193 108.163 C 72.766 107.848,72.902 107.810,73.701 107.740 C 73.942 107.719,74.139 107.545,74.139 107.353 C 74.139 107.161,74.324 106.933,74.550 106.846 C 74.885 106.718,74.906 106.756,74.661 107.050 C 74.413 107.350,74.450 107.389,74.876 107.277 C 75.159 107.203,75.391 107.036,75.391 106.907 C 75.391 106.777,75.496 106.735,75.625 106.815 C 75.995 107.044,77.645 106.147,77.649 105.714 C 77.653 105.370,77.683 105.368,77.896 105.698 C 78.072 105.971,78.140 105.984,78.143 105.746 C 78.145 105.566,78.255 105.485,78.387 105.567 C 78.767 105.802,81.700 104.224,81.496 103.894 C 81.380 103.706,81.463 103.664,81.737 103.769 C 81.966 103.857,82.154 103.813,82.154 103.672 C 82.154 103.530,82.263 103.482,82.395 103.564 C 82.528 103.646,82.857 103.493,83.126 103.223 C 83.395 102.954,83.681 102.800,83.761 102.880 C 83.842 102.961,83.907 102.888,83.907 102.720 C 83.907 102.551,84.028 102.487,84.175 102.578 C 84.323 102.669,84.506 102.499,84.585 102.196 C 84.668 101.877,84.798 101.762,84.896 101.919 C 85.001 102.090,85.634 101.788,86.610 101.101 C 87.461 100.502,88.074 99.921,87.973 99.809 C 87.872 99.698,87.913 99.677,88.064 99.763 C 88.399 99.954,91.975 96.970,91.783 96.659 C 91.708 96.537,91.800 96.496,91.988 96.568 C 92.176 96.640,92.548 96.450,92.815 96.146 C 93.082 95.842,93.142 95.686,92.948 95.800 C 92.709 95.941,92.654 95.913,92.778 95.714 C 92.877 95.553,93.045 95.474,93.150 95.539 C 93.431 95.712,95.726 93.305,95.498 93.076 C 95.391 92.970,95.416 92.920,95.554 92.966 C 95.692 93.012,96.307 92.486,96.922 91.797 C 98.814 89.676,99.088 89.323,98.685 89.524 C 98.478 89.627,98.553 89.505,98.851 89.252 C 99.694 88.536,101.221 86.413,101.259 85.903 C 101.278 85.651,101.368 85.491,101.460 85.548 C 101.709 85.702,103.547 82.613,103.509 82.105 C 103.491 81.862,103.577 81.690,103.701 81.721 C 104.010 81.800,105.968 77.879,105.775 77.568 C 105.690 77.430,105.727 77.383,105.856 77.463 C 105.986 77.543,106.352 76.856,106.670 75.936 C 106.989 75.017,107.401 73.923,107.586 73.505 C 107.920 72.755,108.986 69.106,109.084 68.378 C 109.112 68.172,109.198 67.833,109.274 67.627 C 109.398 67.290,109.486 66.840,109.859 64.621 C 110.358 61.652,110.499 59.852,110.555 55.729 C 110.591 53.112,110.528 50.351,110.416 49.593 C 110.305 48.835,110.167 47.765,110.111 47.214 C 110.055 46.662,109.952 45.874,109.881 45.460 C 109.811 45.047,109.677 44.258,109.583 43.707 C 109.489 43.156,109.351 42.536,109.276 42.329 C 109.200 42.123,109.105 41.728,109.064 41.453 C 108.884 40.252,107.637 36.411,107.309 36.049 C 107.111 35.830,107.007 35.594,107.076 35.524 C 107.289 35.312,106.667 33.804,106.428 33.952 C 106.305 34.028,106.272 33.915,106.354 33.702 C 106.554 33.181,104.498 28.993,104.148 29.209 C 103.992 29.306,103.931 29.230,104.003 29.027 C 104.154 28.599,103.282 26.800,102.923 26.800 C 102.780 26.800,102.733 26.688,102.818 26.550 C 102.903 26.412,102.853 26.299,102.707 26.299 C 102.561 26.299,102.470 26.209,102.505 26.098 C 102.626 25.706,100.654 22.784,100.382 22.953 C 100.217 23.055,100.183 23.003,100.296 22.821 C 100.519 22.460,99.256 20.716,98.922 20.923 C 98.795 21.001,98.748 20.916,98.818 20.733 C 98.990 20.287,96.474 17.481,96.096 17.697 C 95.936 17.789,95.884 17.775,95.982 17.667 C 96.079 17.559,95.961 17.287,95.720 17.063 C 95.437 16.801,95.418 16.740,95.668 16.892 C 95.881 17.022,95.331 16.380,94.446 15.464 C 93.561 14.549,92.741 13.859,92.624 13.932 C 92.507 14.004,92.442 13.956,92.480 13.824 C 92.518 13.693,91.990 13.093,91.308 12.491 C 90.625 11.889,90.170 11.565,90.295 11.770 C 90.421 11.976,90.126 11.750,89.639 11.269 C 88.561 10.204,86.415 8.658,86.404 8.939 C 86.400 9.051,86.285 8.950,86.147 8.714 C 86.006 8.471,85.734 8.349,85.519 8.432 C 85.310 8.512,85.172 8.479,85.212 8.359 C 85.252 8.239,85.190 8.120,85.074 8.094 C 84.958 8.069,84.708 7.844,84.519 7.593 C 84.329 7.343,84.170 7.227,84.166 7.336 C 84.161 7.445,83.915 7.308,83.619 7.032 C 83.323 6.755,82.984 6.589,82.868 6.661 C 82.751 6.733,82.655 6.676,82.655 6.535 C 82.655 6.393,82.467 6.349,82.238 6.437 C 81.964 6.543,81.881 6.500,81.997 6.313 C 82.111 6.130,81.085 5.508,79.095 4.555 C 75.173 2.677,74.653 2.467,74.371 2.642 C 74.243 2.720,74.139 2.653,74.139 2.493 C 74.139 2.332,73.970 2.266,73.763 2.345 C 73.557 2.424,73.388 2.368,73.388 2.220 C 73.388 2.071,73.219 2.015,73.012 2.094 C 72.805 2.174,72.636 2.117,72.636 1.969 C 72.636 1.821,72.467 1.765,72.260 1.844 C 72.054 1.923,71.885 1.902,71.885 1.796 C 71.885 1.541,70.135 0.914,69.948 1.102 C 69.868 1.182,69.663 1.133,69.493 0.992 C 69.323 0.851,68.834 0.711,68.406 0.681 C 67.978 0.651,67.628 0.539,67.627 0.432 C 67.627 0.325,67.120 0.276,66.500 0.322 C 65.880 0.369,65.373 0.316,65.373 0.204 C 65.373 0.092,60.582 0.000,54.728 0.000 C 48.873 0.000,44.083 0.092,44.083 0.204 M62.967 13.271 C 96.823 20.508,108.850 61.921,83.989 85.661 C 58.303 110.188,16.124 94.226,12.507 58.610 C 9.723 31.188,36.064 7.521,62.967 13.271 M56.105 27.838 C 50.372 28.785,47.355 33.182,47.343 40.608 C 47.338 43.883,47.303 43.924,44.404 44.046 C 41.755 44.158,41.828 43.996,41.828 49.687 C 41.828 54.962,41.745 54.800,44.527 54.944 C 47.625 55.105,47.339 53.724,47.339 68.534 C 47.339 81.069,47.352 81.416,47.840 81.904 C 48.456 82.520,57.140 82.682,57.932 82.091 C 58.314 81.807,58.358 80.598,58.418 68.704 C 58.470 58.486,58.555 55.559,58.805 55.309 C 59.025 55.089,60.228 54.958,62.618 54.892 C 66.722 54.780,66.469 54.970,66.828 51.722 C 67.725 43.608,67.931 44.084,63.526 44.079 C 59.130 44.074,59.009 44.009,58.907 41.571 C 58.741 37.648,59.348 37.070,63.623 37.070 C 67.621 37.070,67.376 37.380,67.376 32.311 C 67.376 28.375,67.342 28.052,66.892 27.811 C 66.299 27.494,58.064 27.514,56.105 27.838 M250.907 32.426 C 251.033 33.085,251.722 33.860,251.722 33.343 C 251.722 33.189,251.597 33.062,251.445 33.062 C 251.292 33.062,251.229 32.901,251.305 32.705 C 251.380 32.508,251.295 32.225,251.115 32.076 C 250.858 31.863,250.814 31.937,250.907 32.426 M252.150 35.316 C 252.222 35.592,252.370 35.817,252.479 35.817 C 252.588 35.817,252.618 35.592,252.546 35.316 C 252.474 35.041,252.326 34.815,252.217 34.815 C 252.108 34.815,252.078 35.041,252.150 35.316 M252.724 37.138 C 252.724 37.330,252.802 37.565,252.898 37.661 C 253.072 37.835,253.093 37.911,253.291 39.060 C 253.349 39.397,253.526 39.717,253.686 39.770 C 254.035 39.886,254.077 39.415,253.737 39.205 C 253.605 39.124,253.561 38.892,253.638 38.690 C 253.716 38.487,253.658 38.322,253.510 38.322 C 253.362 38.322,253.305 38.153,253.385 37.946 C 253.464 37.740,253.397 37.570,253.237 37.570 C 253.076 37.570,253.010 37.466,253.089 37.337 C 253.168 37.209,253.118 37.033,252.978 36.947 C 252.838 36.860,252.724 36.946,252.724 37.138 M253.663 40.325 C 253.835 40.518,253.974 40.851,253.972 41.064 C 253.969 41.404,253.939 41.406,253.733 41.080 C 253.547 40.786,253.506 40.822,253.539 41.255 C 253.567 41.633,253.668 41.730,253.864 41.567 C 254.020 41.438,254.214 41.398,254.295 41.480 C 254.377 41.561,254.382 41.395,254.308 41.110 C 254.233 40.825,253.987 40.453,253.761 40.283 C 253.415 40.023,253.400 40.030,253.663 40.325 M254.164 42.114 C 254.558 42.511,254.575 42.920,254.188 42.681 C 254.007 42.570,253.967 42.613,254.080 42.796 C 254.180 42.957,254.366 43.024,254.494 42.945 C 254.877 42.708,254.759 42.144,254.289 41.966 C 253.938 41.832,253.913 41.861,254.164 42.114 M254.078 43.721 C 254.105 43.907,254.336 44.289,254.592 44.572 C 254.847 44.854,254.938 45.085,254.793 45.085 C 254.649 45.085,254.460 45.270,254.373 45.496 C 254.236 45.854,254.273 45.863,254.659 45.567 C 254.903 45.379,255.143 45.202,255.191 45.172 C 255.239 45.142,255.187 44.970,255.075 44.788 C 254.963 44.607,254.867 44.245,254.862 43.983 C 254.857 43.721,254.667 43.479,254.441 43.445 C 254.214 43.411,254.050 43.535,254.078 43.721 M254.732 46.207 C 254.452 46.544,254.473 46.574,254.880 46.421 C 255.314 46.258,255.322 46.283,254.978 46.714 C 254.760 46.988,254.733 47.106,254.915 46.996 C 255.088 46.893,255.229 46.922,255.229 47.061 C 255.229 47.200,255.045 47.417,254.821 47.542 C 254.542 47.698,254.502 47.826,254.695 47.945 C 254.851 48.041,254.980 47.972,254.982 47.792 C 254.985 47.550,255.047 47.561,255.219 47.833 C 255.384 48.094,255.307 48.338,254.959 48.662 C 254.460 49.127,254.509 49.596,255.055 49.589 C 255.235 49.587,255.204 49.488,254.978 49.343 C 254.660 49.137,254.671 49.099,255.055 49.096 C 255.305 49.094,255.439 48.979,255.354 48.842 C 255.269 48.704,255.305 48.591,255.433 48.591 C 255.695 48.591,255.523 46.327,255.238 46.013 C 255.138 45.904,254.911 45.991,254.732 46.207 M255.390 49.443 C 255.135 49.835,255.039 50.086,255.176 50.001 C 255.642 49.713,255.778 50.691,255.320 51.027 C 254.985 51.271,254.967 51.348,255.243 51.354 C 255.550 51.361,255.548 51.408,255.229 51.667 C 254.658 52.130,254.691 52.812,255.276 52.659 C 255.569 52.582,255.704 52.392,255.619 52.172 C 255.543 51.973,255.599 51.589,255.744 51.319 C 255.889 51.048,255.973 50.355,255.931 49.778 L 255.855 48.730 255.390 49.443 M255.275 53.580 C 254.905 53.987,254.802 54.252,254.991 54.314 C 255.154 54.369,255.388 54.258,255.512 54.069 C 255.653 53.853,255.712 54.368,255.671 55.459 C 255.621 56.748,255.508 57.218,255.229 57.294 C 254.900 57.383,254.899 57.363,255.221 57.140 C 255.424 56.999,255.514 56.808,255.421 56.715 C 255.328 56.622,255.070 56.729,254.847 56.952 C 254.598 57.201,254.555 57.358,254.737 57.358 C 254.899 57.358,254.974 57.508,254.904 57.692 C 254.832 57.878,254.941 58.025,255.149 58.025 C 255.738 58.025,256.005 56.937,255.927 54.859 L 255.855 52.945 255.275 53.580 M255.383 58.999 C 255.295 59.230,255.339 59.323,255.492 59.228 C 255.658 59.126,255.694 59.321,255.593 59.779 C 255.330 60.978,255.241 61.152,254.980 60.990 C 254.841 60.905,254.728 60.942,254.728 61.073 C 254.728 61.204,254.904 61.379,255.119 61.462 C 255.335 61.544,255.439 61.727,255.352 61.868 C 255.265 62.009,255.108 62.071,255.003 62.006 C 254.897 61.941,254.811 62.052,254.811 62.253 C 254.811 62.453,254.905 62.617,255.020 62.617 C 255.135 62.617,255.229 62.727,255.229 62.860 C 255.229 62.993,255.031 63.041,254.790 62.966 C 254.426 62.853,254.433 62.881,254.828 63.133 C 255.285 63.424,255.280 63.449,254.703 63.769 C 254.372 63.953,254.218 64.106,254.360 64.111 C 254.502 64.116,254.642 64.430,254.671 64.809 C 254.710 65.336,254.665 65.410,254.479 65.122 C 254.285 64.825,254.234 64.880,254.231 65.385 C 254.228 65.736,254.110 66.141,253.967 66.283 C 253.788 66.462,253.884 66.530,254.274 66.501 C 254.877 66.456,255.465 64.843,254.946 64.658 C 254.803 64.607,254.849 64.394,255.054 64.157 C 255.499 63.644,255.830 61.365,255.459 61.365 C 255.316 61.365,255.270 61.251,255.356 61.111 C 255.443 60.970,255.619 60.921,255.747 61.000 C 255.879 61.082,255.980 60.595,255.980 59.877 C 255.980 58.645,255.686 58.211,255.383 58.999 M254.377 67.226 C 254.451 67.418,254.389 67.652,254.240 67.744 C 254.090 67.836,254.027 68.007,254.099 68.124 C 254.293 68.438,253.764 69.683,253.504 69.523 C 253.127 69.290,253.004 70.345,253.373 70.651 C 253.723 70.942,254.077 70.529,253.948 69.981 C 253.919 69.857,254.027 69.436,254.188 69.046 C 254.349 68.656,254.417 68.233,254.339 68.107 C 254.261 67.981,254.316 67.877,254.462 67.877 C 254.608 67.877,254.728 67.652,254.728 67.376 C 254.728 67.101,254.618 66.875,254.485 66.875 C 254.352 66.875,254.303 67.033,254.377 67.226 M253.193 71.384 C 253.176 71.522,253.148 71.738,253.131 71.864 C 253.114 71.990,253.015 72.178,252.912 72.281 C 252.627 72.566,252.687 73.137,253.001 73.137 C 253.154 73.137,253.215 72.972,253.137 72.769 C 253.060 72.567,253.106 72.334,253.240 72.251 C 253.374 72.168,253.419 71.996,253.339 71.867 C 253.260 71.739,253.315 71.634,253.460 71.634 C 253.606 71.634,253.726 71.522,253.726 71.384 C 253.726 71.246,253.613 71.133,253.475 71.133 C 253.338 71.133,253.211 71.246,253.193 71.384 M252.139 74.306 C 251.871 74.574,251.947 75.186,252.227 75.013 C 252.367 74.927,252.423 74.761,252.351 74.644 C 252.279 74.528,252.361 74.375,252.534 74.305 C 252.708 74.235,252.728 74.170,252.578 74.159 C 252.429 74.148,252.231 74.214,252.139 74.306 M49.343 137.150 C 48.447 137.334,47.168 137.490,46.501 137.496 C 45.833 137.503,44.706 137.662,43.996 137.851 C 43.286 138.040,42.085 138.329,41.327 138.493 C 40.570 138.657,39.499 138.941,38.948 139.125 C 38.397 139.308,37.326 139.648,36.569 139.881 C 35.811 140.113,34.289 140.699,33.187 141.182 C 32.085 141.665,30.789 142.233,30.307 142.444 C 17.467 148.061,5.283 162.271,1.252 176.331 C 0.956 177.364,0.584 178.547,0.426 178.961 C -0.092 180.315,-0.123 204.051,0.390 206.378 C 0.923 208.793,2.338 213.061,3.301 215.153 C 4.802 218.416,5.372 219.556,5.990 220.539 C 6.337 221.090,6.837 221.935,7.101 222.417 C 11.778 230.954,22.448 240.163,32.561 244.387 C 37.033 246.255,40.701 247.464,41.897 247.464 C 42.255 247.464,42.865 247.588,43.252 247.739 C 47.122 249.246,63.792 249.281,66.210 247.787 C 66.368 247.689,67.005 247.535,67.626 247.445 C 84.781 244.949,103.964 226.623,108.689 208.217 C 110.167 202.462,110.706 198.369,110.707 192.902 C 110.708 189.062,110.142 183.157,109.693 182.319 C 109.562 182.074,109.455 181.492,109.455 181.025 C 109.455 180.559,109.297 179.678,109.104 179.068 C 108.911 178.458,108.500 177.113,108.190 176.080 C 107.880 175.047,107.531 174.095,107.414 173.964 C 107.297 173.833,107.200 173.551,107.199 173.338 C 107.199 173.124,107.030 172.626,106.824 172.232 C 106.618 171.837,106.450 171.400,106.450 171.261 C 106.450 170.830,103.536 165.199,102.267 163.178 C 98.245 156.770,92.433 150.753,86.036 146.376 C 84.288 145.180,78.655 142.016,78.274 142.016 C 78.131 142.016,77.621 141.808,77.141 141.553 C 76.307 141.111,73.431 140.036,70.758 139.168 C 68.640 138.480,65.114 137.754,62.617 137.492 C 61.309 137.355,59.843 137.134,59.361 137.001 C 58.104 136.654,51.265 136.756,49.343 137.150 M341.140 137.036 C 340.657 137.161,339.136 137.370,337.758 137.499 C 335.072 137.752,331.808 138.429,329.142 139.288 C 326.725 140.066,324.074 141.038,323.356 141.409 C 323.012 141.587,322.054 142.028,321.227 142.389 C 308.738 147.848,297.107 160.869,292.586 174.452 C 290.729 180.030,290.606 180.594,289.796 187.226 C 288.883 194.708,290.117 205.894,292.421 211.021 C 292.607 211.434,292.832 212.054,292.920 212.398 C 293.009 212.743,293.178 213.250,293.297 213.525 C 295.469 218.551,297.273 221.963,297.647 221.749 C 297.805 221.659,297.860 221.668,297.770 221.768 C 297.512 222.056,298.593 223.853,301.013 227.159 C 302.386 229.035,309.868 236.694,310.327 236.694 C 310.458 236.694,310.935 237.015,311.388 237.407 C 313.906 239.590,320.088 243.181,323.732 244.576 C 324.696 244.945,326.160 245.529,326.985 245.873 C 327.810 246.218,328.937 246.598,329.490 246.718 C 330.042 246.838,330.974 247.055,331.559 247.200 C 334.240 247.865,334.959 248.004,338.127 248.470 C 343.785 249.303,354.484 248.883,356.611 247.745 C 356.900 247.591,357.542 247.464,358.038 247.464 C 358.534 247.464,359.344 247.295,359.838 247.088 C 360.333 246.882,360.957 246.713,361.225 246.713 C 361.493 246.713,362.522 246.385,363.511 245.984 C 364.501 245.583,366.099 244.952,367.063 244.582 C 374.272 241.815,383.004 235.402,388.205 229.054 C 389.853 227.043,392.978 222.724,393.188 222.167 C 393.266 221.960,393.753 221.097,394.269 220.248 C 394.785 219.400,395.451 218.160,395.749 217.493 C 396.046 216.826,396.547 215.717,396.861 215.028 C 397.609 213.389,398.862 209.748,399.489 207.389 C 399.956 205.632,399.989 204.691,399.994 192.849 L 400.000 180.187 399.360 178.071 C 399.007 176.907,398.564 175.448,398.374 174.828 C 394.446 162.002,383.285 149.129,370.812 143.038 C 369.301 142.300,367.783 141.559,367.439 141.391 C 365.946 140.661,361.707 139.262,358.798 138.538 C 358.247 138.401,357.112 138.113,356.277 137.899 C 355.441 137.684,354.088 137.504,353.271 137.499 C 352.453 137.494,351.108 137.327,350.282 137.127 C 348.596 136.720,342.584 136.660,341.140 137.036 M58.860 150.537 C 88.956 153.655,106.248 185.688,92.391 212.654 C 76.680 243.230,32.217 242.561,17.036 211.522 C 3.897 184.657,22.367 152.766,52.348 150.549 C 56.157 150.267,56.253 150.267,58.860 150.537 M195.606 150.557 C 194.704 150.674,193.521 150.874,192.976 151.001 C 191.485 151.350,192.916 151.351,194.757 151.002 C 195.574 150.847,197.990 150.639,200.125 150.541 L 204.008 150.362 200.626 150.353 C 198.766 150.349,196.507 150.441,195.606 150.557 M206.154 150.915 C 223.346 153.596,236.503 165.543,241.314 182.843 C 241.612 183.916,241.665 183.999,241.553 183.219 C 240.575 176.426,234.320 166.079,227.907 160.642 C 221.454 155.173,210.522 150.392,204.845 150.557 C 204.384 150.570,204.974 150.731,206.154 150.915 M351.126 150.923 C 385.546 155.978,399.790 197.165,375.839 222.380 C 364.653 234.155,347.672 238.183,332.027 232.772 C 298.529 221.185,293.158 176.752,322.921 157.432 C 330.896 152.255,342.290 149.626,351.126 150.923 M190.357 151.534 C 189.861 151.693,189.835 151.735,190.232 151.735 C 190.507 151.735,191.014 151.644,191.359 151.534 C 191.855 151.375,191.881 151.334,191.484 151.334 C 191.209 151.334,190.701 151.424,190.357 151.534 M188.478 152.035 C 188.163 152.171,188.116 152.250,188.353 152.250 C 188.560 152.250,188.954 152.153,189.230 152.035 C 189.546 151.899,189.592 151.820,189.355 151.820 C 189.148 151.820,188.754 151.917,188.478 152.035 M179.775 155.559 C 179.258 155.831,178.835 156.111,178.835 156.179 C 178.835 156.247,179.286 156.073,179.837 155.792 C 180.388 155.511,180.839 155.227,180.839 155.161 C 180.839 154.997,180.837 154.998,179.775 155.559 M176.766 157.425 C 175.838 158.048,175.078 158.613,175.078 158.680 C 175.078 158.747,175.867 158.277,176.832 157.636 C 178.366 156.616,178.771 156.293,178.520 156.293 C 178.484 156.293,177.695 156.803,176.766 157.425 M172.800 160.381 C 170.673 162.198,167.324 165.715,166.108 167.410 C 164.825 169.199,165.303 168.777,166.999 166.625 C 168.532 164.679,171.715 161.466,173.826 159.733 C 174.446 159.224,174.886 158.805,174.803 158.803 C 174.721 158.800,173.819 159.510,172.800 160.381 M200.313 167.248 C 201.036 167.298,202.220 167.298,202.943 167.248 C 203.666 167.197,203.075 167.156,201.628 167.156 C 200.182 167.156,199.590 167.197,200.313 167.248 M193.785 168.361 C 191.685 169.093,192.162 169.158,194.375 168.442 C 195.402 168.109,196.018 167.841,195.742 167.846 C 195.466 167.850,194.586 168.082,193.785 168.361 M208.881 168.442 C 209.909 168.774,210.788 169.007,210.836 168.959 C 210.962 168.834,207.868 167.812,207.403 167.826 C 207.189 167.832,207.854 168.109,208.881 168.442 M190.545 169.710 C 189.890 170.050,189.355 170.385,189.355 170.454 C 189.355 170.565,191.835 169.394,192.089 169.162 C 192.399 168.880,191.585 169.168,190.545 169.710 M211.167 169.162 C 211.422 169.395,213.901 170.565,213.901 170.453 C 213.901 170.312,211.509 169.067,211.238 169.067 C 211.141 169.067,211.109 169.110,211.167 169.162 M324.988 170.859 C 322.000 172.863,321.631 176.911,324.219 179.297 C 328.902 183.614,335.733 177.841,332.386 172.396 C 330.954 170.066,327.301 169.307,324.988 170.859 M186.880 172.081 C 183.935 174.300,181.566 177.151,179.870 180.519 C 178.707 182.830,178.933 182.784,180.158 180.461 C 182.307 176.382,184.717 173.690,188.610 171.021 C 188.951 170.787,189.152 170.590,189.057 170.583 C 188.963 170.576,187.983 171.250,186.880 172.081 M214.152 170.625 C 214.220 170.706,214.960 171.275,215.795 171.888 C 219.029 174.265,221.539 177.283,223.344 180.964 C 223.952 182.204,224.373 182.937,224.281 182.592 C 223.595 180.041,220.117 175.144,217.371 172.864 C 216.007 171.732,213.774 170.179,214.152 170.625 M200.689 171.003 C 201.205 171.057,202.051 171.057,202.567 171.003 C 203.084 170.949,202.661 170.904,201.628 170.904 C 200.595 170.904,200.172 170.949,200.689 171.003 M197.370 171.334 C 196.948 171.477,197.152 171.499,197.996 171.402 C 198.685 171.322,199.296 171.215,199.353 171.164 C 199.550 170.988,197.996 171.121,197.370 171.334 M203.903 171.164 C 203.961 171.215,204.571 171.322,205.260 171.402 C 206.104 171.499,206.308 171.477,205.886 171.334 C 205.260 171.121,203.706 170.988,203.903 171.164 M162.930 172.323 C 162.717 172.736,162.598 173.075,162.667 173.075 C 162.736 173.075,162.967 172.736,163.181 172.323 C 163.395 171.910,163.513 171.572,163.444 171.572 C 163.375 171.572,163.144 171.910,162.930 172.323 M207.870 172.090 C 208.616 172.355,209.271 172.529,209.323 172.476 C 209.440 172.359,207.159 171.564,206.781 171.590 C 206.633 171.600,207.123 171.825,207.870 172.090 M194.490 172.207 C 193.863 172.508,193.842 172.543,194.364 172.416 C 195.074 172.242,195.872 171.835,195.492 171.841 C 195.354 171.843,194.903 172.008,194.490 172.207 M63.995 172.660 C 59.064 174.286,56.243 177.909,55.890 183.067 C 55.683 186.095,55.674 186.101,52.320 185.529 C 45.741 184.406,40.106 181.542,34.756 176.599 C 32.749 174.745,32.354 174.726,31.744 176.457 C 30.639 179.592,31.461 183.871,33.728 186.790 C 35.147 188.617,35.151 188.977,33.751 188.741 C 31.527 188.365,31.442 188.388,31.359 189.375 C 31.160 191.744,33.444 195.293,36.418 197.237 C 38.663 198.705,38.761 199.016,37.052 199.251 C 35.533 199.460,35.369 199.757,36.043 201.079 C 37.152 203.253,41.308 206.387,43.081 206.387 C 44.006 206.387,44.654 207.146,44.178 207.673 C 42.526 209.498,36.908 211.334,31.829 211.709 C 29.000 211.917,33.424 214.261,39.138 215.582 C 58.575 220.075,76.905 206.356,78.356 186.231 L 78.572 183.232 80.105 181.843 C 81.640 180.454,82.905 178.944,82.905 178.504 C 82.905 178.287,80.829 178.444,80.085 178.716 C 79.081 179.084,79.069 178.336,80.060 177.160 C 82.443 174.332,82.362 173.408,79.819 174.425 C 76.422 175.784,75.895 175.803,74.092 174.629 C 70.778 172.473,66.872 171.711,63.995 172.660 M192.549 172.967 C 191.577 173.494,191.687 173.676,192.674 173.174 C 193.618 172.694,193.785 172.570,193.467 172.584 C 193.341 172.589,192.927 172.762,192.549 172.967 M209.664 172.667 C 209.922 172.898,211.396 173.575,211.396 173.463 C 211.396 173.319,210.008 172.574,209.739 172.574 C 209.640 172.574,209.607 172.616,209.664 172.667 M190.228 174.422 C 187.239 176.447,183.081 181.296,183.096 182.740 C 183.097 182.865,183.452 182.348,183.885 181.590 C 185.590 178.603,188.055 175.982,190.688 174.355 C 191.477 173.867,191.797 173.575,191.543 173.575 C 191.507 173.575,190.915 173.956,190.228 174.422 M212.144 174.002 C 215.306 176.288,217.351 178.341,219.103 180.985 C 219.372 181.390,219.376 181.368,219.128 180.839 C 218.296 179.069,215.591 176.157,213.400 174.674 C 212.131 173.815,211.187 173.310,212.144 174.002 M161.093 175.966 C 160.673 176.887,160.753 177.083,161.207 176.246 C 161.419 175.855,161.545 175.488,161.488 175.431 C 161.431 175.373,161.253 175.614,161.093 175.966 M191.873 180.991 C 191.446 181.351,190.981 181.886,190.838 182.181 C 190.677 182.516,190.789 182.448,191.137 181.999 C 191.443 181.604,192.041 181.069,192.466 180.811 C 192.890 180.552,193.105 180.340,192.943 180.339 C 192.782 180.339,192.300 180.632,191.873 180.991 M195.074 180.511 C 195.257 180.584,195.623 180.998,195.887 181.430 C 196.151 181.863,196.367 182.091,196.367 181.937 C 196.369 181.517,195.372 180.335,195.035 180.358 C 194.848 180.370,194.862 180.426,195.074 180.511 M182.379 184.429 C 182.104 185.163,181.811 186.206,181.728 186.746 C 181.639 187.323,181.822 186.954,182.173 185.848 C 182.501 184.815,182.854 183.773,182.958 183.532 C 183.062 183.291,183.087 183.093,183.013 183.093 C 182.939 183.093,182.654 183.694,182.379 184.429 M196.889 183.626 C 196.878 183.713,197.038 184.188,197.245 184.683 C 197.789 185.986,197.713 186.638,196.874 187.877 C 196.463 188.483,196.136 189.261,196.148 189.606 C 196.167 190.177,196.185 190.166,196.353 189.480 C 196.455 189.067,196.838 188.290,197.204 187.755 C 197.571 187.219,197.868 186.486,197.864 186.127 C 197.859 185.557,196.943 183.209,196.889 183.626 M224.702 184.220 C 224.691 184.358,224.838 185.034,225.029 185.723 C 225.221 186.412,225.379 186.750,225.381 186.475 C 225.384 185.941,224.739 183.797,224.702 184.220 M322.981 185.439 C 322.289 185.948,322.051 214.277,322.730 215.313 C 323.320 216.214,332.357 216.244,332.985 215.348 C 333.546 214.548,333.579 186.474,333.020 185.708 C 332.539 185.049,323.828 184.816,322.981 185.439 M340.138 185.271 C 339.140 185.628,339.136 185.688,339.136 200.493 C 339.136 217.824,338.561 215.905,343.753 215.905 C 348.777 215.905,348.251 217.022,348.403 206.036 L 348.528 196.994 349.172 195.742 C 350.831 192.511,355.429 191.924,357.508 194.677 C 358.788 196.371,358.923 197.502,358.923 206.502 C 358.923 216.908,358.415 215.905,363.682 215.905 C 368.952 215.905,368.441 216.930,368.441 206.358 C 368.441 194.526,368.077 191.727,366.183 188.974 C 363.402 184.932,355.119 183.892,350.148 186.960 C 348.227 188.147,347.902 188.076,347.902 186.468 C 347.902 185.352,347.094 185.095,343.651 185.117 C 341.925 185.128,340.344 185.197,340.138 185.271 M221.207 186.099 C 221.220 186.750,221.614 187.819,221.623 187.226 C 221.627 186.951,221.534 186.500,221.415 186.224 C 221.283 185.917,221.203 185.869,221.207 186.099 M225.486 187.977 C 225.489 188.528,225.540 188.724,225.600 188.413 C 225.660 188.101,225.657 187.650,225.595 187.411 C 225.532 187.172,225.483 187.426,225.486 187.977 M242.279 188.353 C 242.279 189.111,242.326 189.421,242.384 189.042 C 242.441 188.663,242.441 188.043,242.384 187.664 C 242.326 187.286,242.279 187.595,242.279 188.353 M157.859 188.478 C 157.862 189.029,157.913 189.225,157.973 188.914 C 158.033 188.602,158.031 188.151,157.968 187.912 C 157.905 187.672,157.856 187.927,157.859 188.478 M181.403 188.729 C 181.406 189.280,181.457 189.476,181.517 189.164 C 181.577 188.853,181.575 188.402,181.512 188.162 C 181.449 187.923,181.400 188.178,181.403 188.729 M221.729 188.729 C 221.732 189.280,221.783 189.476,221.843 189.164 C 221.903 188.853,221.900 188.402,221.838 188.162 C 221.775 187.923,221.726 188.178,221.729 188.729 M177.425 191.108 C 177.425 192.555,177.467 193.147,177.517 192.423 C 177.568 191.700,177.568 190.517,177.517 189.793 C 177.467 189.070,177.425 189.662,177.425 191.108 M190.363 188.676 C 190.297 190.943,197.048 198.308,201.055 200.341 C 202.754 201.204,202.652 200.944,200.926 200.014 C 197.092 197.948,193.480 194.229,191.182 189.981 C 190.734 189.155,190.366 188.567,190.363 188.676 M225.759 191.234 C 225.760 192.336,225.804 192.755,225.857 192.166 C 225.910 191.577,225.909 190.675,225.855 190.162 C 225.801 189.649,225.758 190.131,225.759 191.234 M242.552 192.987 C 242.552 194.778,242.592 195.477,242.641 194.542 C 242.689 193.606,242.689 192.141,242.640 191.286 C 242.591 190.431,242.551 191.196,242.552 192.987 M181.153 191.234 C 181.155 191.785,181.207 191.981,181.267 191.669 C 181.327 191.357,181.324 190.907,181.262 190.667 C 181.199 190.428,181.150 190.683,181.153 191.234 M196.643 190.858 C 197.506 192.644,202.775 196.869,204.139 196.869 C 204.310 196.869,203.618 196.453,202.601 195.945 C 200.810 195.050,198.281 192.850,196.898 190.983 C 196.446 190.374,196.398 190.350,196.643 190.858 M157.630 192.862 C 157.630 193.895,157.674 194.317,157.728 193.801 C 157.782 193.284,157.782 192.439,157.728 191.922 C 157.674 191.406,157.630 191.828,157.630 192.862 M181.365 193.509 C 181.379 194.048,181.482 194.771,181.595 195.116 C 181.723 195.505,181.747 195.173,181.661 194.239 C 181.499 192.499,181.329 192.078,181.365 193.509 M221.734 193.613 C 221.734 194.233,221.783 194.487,221.842 194.177 C 221.902 193.867,221.902 193.359,221.842 193.049 C 221.783 192.740,221.734 192.993,221.734 193.613 M225.486 194.490 C 225.489 195.041,225.540 195.237,225.600 194.925 C 225.660 194.614,225.657 194.163,225.595 193.923 C 225.532 193.684,225.483 193.939,225.486 194.490 M206.425 195.342 C 205.784 196.017,205.091 196.628,204.884 196.699 C 204.568 196.809,204.572 196.833,204.909 196.849 C 205.130 196.860,205.830 196.306,206.464 195.617 C 207.712 194.262,208.450 194.058,209.643 194.740 C 209.987 194.937,210.382 195.097,210.520 195.096 C 210.657 195.096,210.376 194.879,209.894 194.615 C 208.426 193.811,207.741 193.955,206.425 195.342 M211.772 195.658 C 213.333 196.468,213.646 196.845,213.693 197.972 L 213.735 198.998 213.835 198.034 C 213.961 196.815,212.227 195.056,210.968 195.127 C 210.859 195.133,211.221 195.372,211.772 195.658 M177.874 195.867 C 177.872 196.474,178.517 198.750,178.548 198.247 C 178.557 198.109,178.409 197.376,178.220 196.619 C 178.031 195.861,177.875 195.523,177.874 195.867 M221.057 196.511 C 220.965 196.878,220.938 197.227,220.997 197.286 C 221.056 197.345,221.180 197.093,221.272 196.726 C 221.364 196.359,221.391 196.010,221.332 195.951 C 221.273 195.892,221.149 196.144,221.057 196.511 M242.242 197.280 C 242.194 198.592,241.558 201.985,240.936 204.241 C 240.673 205.195,240.505 206.024,240.563 206.082 C 240.665 206.184,240.790 205.774,241.542 202.863 C 242.096 200.719,242.514 197.829,242.390 196.994 C 242.298 196.372,242.273 196.421,242.242 197.280 M157.859 197.495 C 157.862 198.046,157.913 198.242,157.973 197.931 C 158.033 197.619,158.031 197.168,157.968 196.929 C 157.905 196.689,157.856 196.944,157.859 197.495 M224.249 199.181 C 223.949 200.040,223.740 200.781,223.787 200.827 C 223.914 200.954,224.951 198.085,224.868 197.836 C 224.829 197.717,224.550 198.323,224.249 199.181 M182.601 198.497 C 182.601 198.635,183.114 199.703,183.741 200.871 C 184.672 202.605,184.856 203.157,184.744 203.877 C 184.644 204.526,184.668 204.627,184.835 204.258 C 185.230 203.386,185.126 203.002,183.850 200.597 C 183.163 199.304,182.602 198.359,182.601 198.497 M219.614 200.209 C 218.176 203.115,215.352 206.297,212.822 207.860 C 212.313 208.174,211.897 208.490,211.897 208.561 C 211.897 209.213,216.091 205.678,217.594 203.759 C 218.848 202.158,220.822 198.697,220.605 198.480 C 220.555 198.430,220.109 199.208,219.614 200.209 M213.104 199.874 C 212.877 200.268,212.091 200.936,211.355 201.358 C 210.620 201.779,210.138 202.125,210.283 202.127 C 211.118 202.134,214.007 199.647,213.617 199.257 C 213.562 199.201,213.331 199.479,213.104 199.874 M179.348 200.699 C 179.342 200.808,179.580 201.371,179.878 201.951 C 180.176 202.531,180.503 203.344,180.604 203.757 C 180.770 204.436,180.789 204.448,180.802 203.882 C 180.814 203.333,179.378 200.190,179.348 200.699 M203.256 201.224 C 203.669 201.412,204.289 201.635,204.634 201.720 C 205.137 201.843,205.112 201.806,204.508 201.531 C 204.095 201.343,203.475 201.120,203.131 201.035 C 202.628 200.912,202.653 200.949,203.256 201.224 M223.092 202.007 C 222.863 202.487,222.727 202.880,222.790 202.880 C 222.962 202.880,223.722 201.347,223.608 201.232 C 223.553 201.178,223.321 201.526,223.092 202.007 M205.761 202.129 C 206.036 202.247,206.487 202.341,206.763 202.337 C 207.165 202.331,207.141 202.290,206.637 202.129 C 205.781 201.855,205.123 201.855,205.761 202.129 M221.130 205.197 C 219.285 207.832,216.164 210.495,212.809 212.297 C 210.596 213.485,210.348 213.810,212.469 212.743 C 215.833 211.050,223.294 204.383,221.825 204.383 C 221.756 204.383,221.443 204.750,221.130 205.197 M183.745 206.810 C 182.683 210.001,182.927 210.557,185.059 209.806 C 185.700 209.581,185.942 209.456,185.598 209.529 C 182.941 210.095,182.901 210.030,183.969 206.890 C 184.314 205.878,184.551 205.006,184.496 204.951 C 184.442 204.897,184.104 205.733,183.745 206.810 M239.991 207.352 C 236.936 217.546,227.745 226.909,215.153 232.654 L 214.527 232.939 215.153 232.788 C 220.817 231.423,230.700 223.680,235.105 217.157 C 237.451 213.682,240.815 206.918,240.402 206.505 C 240.335 206.438,240.150 206.819,239.991 207.352 M178.081 211.531 C 176.543 216.145,176.593 216.498,178.701 215.907 C 179.334 215.730,179.803 215.537,179.744 215.477 C 179.684 215.418,179.170 215.509,178.601 215.679 C 176.886 216.193,176.866 215.920,178.302 211.623 C 179.004 209.520,179.536 207.756,179.484 207.703 C 179.431 207.651,178.800 209.373,178.081 211.531 M188.604 208.539 C 188.099 208.746,187.992 208.840,188.353 208.760 C 190.330 208.323,190.524 208.342,192.059 209.116 C 192.906 209.544,193.686 209.888,193.794 209.881 C 193.901 209.875,193.256 209.486,192.361 209.017 C 190.574 208.081,189.919 207.998,188.604 208.539 M211.325 208.796 C 211.240 208.881,210.235 209.330,209.092 209.793 C 207.949 210.257,207.162 210.638,207.344 210.641 C 207.810 210.647,211.366 209.143,211.536 208.868 C 211.696 208.610,211.558 208.563,211.325 208.796 M194.740 210.278 C 195.153 210.468,195.661 210.619,195.867 210.615 C 196.074 210.610,195.848 210.455,195.366 210.269 C 194.223 209.829,193.773 209.835,194.740 210.278 M161.302 210.236 C 161.302 210.507,162.547 212.899,162.688 212.899 C 162.757 212.899,162.516 212.307,162.153 211.584 C 161.454 210.193,161.302 209.952,161.302 210.236 M200.063 211.331 C 200.924 211.380,202.332 211.380,203.193 211.331 C 204.054 211.282,203.350 211.242,201.628 211.242 C 199.906 211.242,199.202 211.282,200.063 211.331 M191.985 213.244 C 193.087 213.721,194.327 214.183,194.740 214.270 C 195.153 214.358,194.477 214.022,193.237 213.524 C 190.261 212.328,189.450 212.147,191.985 213.244 M184.972 213.651 C 184.283 213.905,183.889 214.113,184.095 214.113 C 184.302 214.113,185.034 213.905,185.723 213.651 C 186.412 213.396,186.807 213.188,186.600 213.188 C 186.393 213.188,185.661 213.396,184.972 213.651 M209.017 213.922 C 208.328 214.188,208.090 214.342,208.488 214.265 C 209.276 214.112,210.926 213.442,210.520 213.440 C 210.382 213.439,209.706 213.656,209.017 213.922 M198.435 215.076 C 198.676 215.139,199.070 215.139,199.311 215.076 C 199.552 215.013,199.355 214.961,198.873 214.961 C 198.391 214.961,198.193 215.013,198.435 215.076 M203.945 215.076 C 204.186 215.139,204.580 215.139,204.822 215.076 C 205.063 215.013,204.865 214.961,204.383 214.961 C 203.901 214.961,203.704 215.013,203.945 215.076 M200.814 215.335 C 201.262 215.390,201.994 215.390,202.442 215.335 C 202.890 215.279,202.523 215.234,201.628 215.234 C 200.733 215.234,200.366 215.279,200.814 215.335 M167.015 219.599 C 167.424 220.116,168.020 220.764,168.338 221.039 C 168.656 221.315,168.365 220.892,167.692 220.100 C 166.320 218.487,165.867 218.152,167.015 219.599 M169.944 222.918 C 170.622 223.607,171.234 224.170,171.302 224.170 C 171.371 224.170,170.873 223.607,170.194 222.918 C 169.516 222.229,168.904 221.666,168.835 221.666 C 168.766 221.666,169.265 222.229,169.944 222.918 M172.323 225.047 C 172.790 225.529,173.229 225.924,173.298 225.924 C 173.367 225.924,173.041 225.529,172.574 225.047 C 172.106 224.565,171.668 224.170,171.599 224.170 C 171.530 224.170,171.856 224.565,172.323 225.047 M173.665 226.117 C 173.864 226.438,175.329 227.522,175.329 227.348 C 175.329 227.286,174.915 226.920,174.409 226.534 C 173.903 226.148,173.569 225.961,173.665 226.117 M181.340 231.058 C 181.960 231.390,182.580 231.662,182.718 231.662 C 182.855 231.662,182.461 231.390,181.841 231.058 C 181.221 230.726,180.601 230.455,180.463 230.455 C 180.326 230.455,180.720 230.726,181.340 231.058 M185.097 232.644 C 185.304 232.772,185.755 232.952,186.099 233.044 C 186.534 233.160,186.611 233.140,186.349 232.979 C 186.143 232.851,185.692 232.672,185.348 232.579 C 184.912 232.463,184.836 232.483,185.097 232.644 M213.150 233.312 C 212.668 233.498,212.442 233.654,212.649 233.658 C 212.855 233.662,213.363 233.511,213.776 233.322 C 214.743 232.879,214.293 232.872,213.150 233.312 M189.062 233.954 C 191.476 234.922,199.702 235.830,203.006 235.494 C 204.839 235.308,204.689 235.289,201.252 235.281 C 197.478 235.271,192.988 234.770,190.357 234.064 C 188.821 233.652,188.170 233.596,189.062 233.954 M209.894 234.209 C 208.998 234.468,208.668 234.625,209.160 234.557 C 210.198 234.414,212.454 233.738,211.897 233.737 C 211.691 233.737,210.789 233.949,209.894 234.209 M205.576 235.118 C 205.887 235.178,206.338 235.175,206.578 235.113 C 206.817 235.050,206.562 235.001,206.011 235.004 C 205.460 235.006,205.264 235.058,205.576 235.118 " stroke="none" fill="#3188c2" fill-rule="evenodd"></path><path id="path1" d="M188.854 0.250 C 188.854 0.544,189.047 0.544,189.731 0.250 C 190.175 0.060,190.153 0.033,189.543 0.018 C 189.164 0.008,188.854 0.113,188.854 0.250 M333.500 0.169 C 329.832 0.979,324.790 2.588,324.655 2.992 C 324.612 3.122,324.433 3.173,324.257 3.105 C 322.648 2.488,305.804 13.657,306.500 14.880 C 306.585 15.031,306.560 15.067,306.444 14.962 C 305.988 14.547,299.961 21.635,298.140 24.728 C 296.960 26.732,295.169 29.959,294.903 30.557 C 291.728 37.716,290.751 41.185,289.791 48.716 C 288.803 56.460,290.017 67.801,292.417 73.262 C 292.599 73.676,293.060 74.898,293.442 75.980 C 293.824 77.061,294.294 78.103,294.487 78.296 C 294.681 78.489,294.774 78.647,294.696 78.647 C 294.256 78.647,298.092 85.320,300.168 88.165 C 301.552 90.063,305.053 94.092,306.366 95.299 C 310.024 98.661,313.037 100.995,313.431 100.770 C 313.586 100.681,313.633 100.698,313.534 100.807 C 313.015 101.381,320.982 105.759,325.736 107.512 C 327.474 108.153,328.467 108.491,329.242 108.705 C 332.741 109.670,335.074 110.207,335.774 110.207 C 336.232 110.207,337.240 110.372,338.014 110.573 C 339.701 111.013,350.479 111.093,352.362 110.680 C 353.009 110.538,354.271 110.326,355.166 110.209 C 356.061 110.092,357.696 109.749,358.798 109.446 C 359.900 109.143,361.140 108.806,361.553 108.696 C 364.711 107.860,370.661 105.239,374.202 103.125 C 376.854 101.541,377.489 101.060,377.261 100.807 C 377.163 100.698,377.202 100.676,377.348 100.759 C 377.897 101.071,383.571 96.364,386.267 93.358 C 388.541 90.825,390.324 88.666,390.144 88.666 C 390.070 88.666,390.346 88.300,390.758 87.852 C 391.420 87.132,395.492 80.622,395.492 80.284 C 395.492 80.211,395.841 79.391,396.267 78.460 C 397.467 75.845,397.662 75.367,398.135 73.889 C 398.377 73.131,398.672 72.286,398.791 72.010 C 399.952 69.307,400.000 68.633,399.994 55.104 C 399.989 43.024,399.956 42.085,399.489 40.326 C 398.587 36.932,397.566 34.196,395.656 30.055 C 394.919 28.457,392.670 24.796,392.425 24.796 C 392.275 24.796,392.225 24.724,392.314 24.634 C 392.818 24.131,385.600 15.279,384.686 15.279 C 384.551 15.279,384.499 15.185,384.571 15.070 C 384.834 14.644,379.599 10.325,375.892 7.909 C 373.138 6.115,367.508 3.184,367.191 3.380 C 367.052 3.466,366.938 3.405,366.938 3.244 C 366.938 3.083,366.776 3.014,366.578 3.090 C 366.381 3.166,366.184 3.124,366.140 2.997 C 366.032 2.682,361.224 1.033,360.159 0.947 C 359.686 0.908,359.236 0.793,359.160 0.692 C 358.719 0.102,335.910 -0.363,333.500 0.169 M186.224 0.655 C 185.231 1.004,185.230 1.006,186.099 0.860 C 187.520 0.622,187.579 0.607,187.761 0.425 C 188.026 0.160,187.341 0.263,186.224 0.655 M181.778 1.939 C 180.435 2.418,179.336 2.910,179.336 3.033 C 179.336 3.334,179.869 3.207,180.302 2.803 C 180.495 2.623,180.800 2.532,180.980 2.601 C 181.160 2.671,181.343 2.624,181.386 2.498 C 181.430 2.372,181.747 2.237,182.091 2.199 C 182.436 2.160,182.779 2.047,182.854 1.947 C 182.929 1.848,183.210 1.723,183.480 1.671 C 183.749 1.619,184.252 1.455,184.596 1.305 C 186.070 0.666,184.113 1.106,181.778 1.939 M175.342 4.646 C 172.352 6.127,172.064 6.327,172.365 6.712 C 172.665 7.095,172.655 7.104,172.264 6.797 C 171.701 6.356,169.193 7.831,169.435 8.461 C 169.554 8.771,169.513 8.782,169.201 8.523 C 168.892 8.267,168.794 8.283,168.668 8.612 C 168.583 8.833,168.412 8.951,168.287 8.874 C 168.163 8.797,167.956 8.995,167.828 9.314 C 167.695 9.646,167.586 9.733,167.572 9.518 C 167.556 9.261,167.353 9.365,166.930 9.845 C 166.590 10.231,166.312 10.477,166.312 10.391 C 166.312 10.305,165.972 10.477,165.557 10.772 C 165.143 11.068,164.867 11.412,164.944 11.538 C 165.022 11.664,164.939 11.713,164.759 11.649 C 164.425 11.528,162.430 13.162,162.430 13.556 C 162.430 13.677,162.348 13.748,162.248 13.713 C 161.969 13.617,158.555 17.092,158.700 17.326 C 158.770 17.440,158.652 17.533,158.437 17.533 C 158.080 17.533,157.930 17.833,158.023 18.366 C 158.043 18.479,157.953 18.507,157.824 18.427 C 157.522 18.240,155.997 20.153,156.237 20.418 C 156.337 20.529,156.290 20.546,156.134 20.456 C 155.785 20.257,152.889 24.506,153.004 25.047 C 153.048 25.254,152.996 25.336,152.888 25.230 C 152.430 24.777,148.486 32.278,147.984 34.559 C 147.939 34.762,147.755 35.087,147.575 35.280 C 147.395 35.473,147.307 35.786,147.379 35.975 C 147.452 36.164,147.415 36.318,147.299 36.318 C 147.182 36.318,146.950 36.797,146.783 37.383 C 146.400 38.725,145.754 41.332,145.680 41.833 C 145.650 42.042,145.557 42.324,145.475 42.459 C 145.393 42.594,145.144 43.832,144.922 45.210 C 144.701 46.587,144.399 48.334,144.252 49.092 C 143.802 51.408,144.082 60.222,144.718 63.776 C 145.711 69.321,147.477 75.391,148.098 75.391 C 148.243 75.391,148.292 75.461,148.208 75.545 C 147.926 75.827,149.725 79.981,151.161 82.361 C 151.300 82.592,151.738 83.369,152.136 84.088 C 152.533 84.807,152.957 85.334,153.079 85.259 C 153.200 85.184,153.269 85.215,153.231 85.329 C 153.125 85.649,154.238 87.414,154.546 87.414 C 154.697 87.414,154.763 87.505,154.694 87.617 C 154.510 87.916,157.535 91.708,157.819 91.533 C 157.951 91.451,158.028 91.533,157.990 91.716 C 157.952 91.898,158.070 92.017,158.253 91.979 C 158.435 91.941,158.518 92.017,158.437 92.148 C 158.225 92.491,161.043 95.461,161.391 95.262 C 161.549 95.172,161.595 95.190,161.494 95.301 C 161.240 95.582,162.525 96.729,162.861 96.521 C 163.016 96.426,163.062 96.469,162.967 96.622 C 162.763 96.953,164.547 98.471,164.891 98.259 C 165.026 98.175,165.060 98.231,164.966 98.383 C 164.867 98.543,165.373 99.086,166.169 99.674 C 167.601 100.732,167.968 100.904,167.664 100.376 C 167.559 100.194,167.579 100.150,167.712 100.271 C 167.837 100.386,167.940 100.583,167.940 100.710 C 167.940 100.836,168.022 100.942,168.122 100.945 C 168.222 100.948,168.589 101.236,168.938 101.585 C 169.537 102.183,170.271 102.221,169.909 101.635 C 169.811 101.476,169.857 101.435,170.019 101.535 C 170.172 101.629,170.237 101.864,170.164 102.055 C 170.089 102.250,170.261 102.527,170.554 102.684 C 170.842 102.838,171.048 102.875,171.012 102.766 C 170.975 102.657,171.057 102.540,171.193 102.507 C 171.330 102.474,171.442 102.642,171.444 102.880 C 171.447 103.376,176.963 106.302,177.393 106.036 C 177.676 105.862,177.102 105.471,176.350 105.326 C 175.751 105.211,174.327 104.480,174.327 104.287 C 174.327 104.207,174.512 104.213,174.738 104.300 C 175.081 104.431,175.097 104.394,174.835 104.079 C 174.662 103.870,174.403 103.772,174.260 103.861 C 174.108 103.955,174.074 103.901,174.178 103.732 C 174.306 103.525,174.496 103.517,174.843 103.703 C 175.186 103.886,175.329 103.882,175.329 103.688 C 175.329 103.538,175.419 103.470,175.530 103.539 C 175.641 103.607,175.742 103.276,175.756 102.802 C 175.769 102.329,175.706 101.941,175.614 101.941 C 175.523 101.941,175.540 100.560,175.651 98.873 C 176.124 91.708,175.887 90.961,171.810 86.794 C 153.056 67.629,153.157 42.359,172.064 22.807 C 173.722 21.093,175.078 19.611,175.078 19.515 C 175.078 19.419,175.223 19.284,175.400 19.216 C 175.650 19.120,175.709 17.911,175.665 13.760 C 175.634 10.777,175.713 8.233,175.845 7.986 C 175.988 7.720,175.990 7.488,175.852 7.402 C 175.725 7.324,175.569 7.402,175.504 7.575 C 175.439 7.748,175.408 7.354,175.436 6.700 C 175.488 5.491,175.244 5.100,175.006 6.011 C 174.850 6.607,174.345 6.691,174.431 6.108 C 174.502 5.623,175.551 4.772,176.087 4.764 C 176.298 4.761,176.661 4.536,176.894 4.263 C 177.128 3.991,177.473 3.827,177.661 3.899 C 177.850 3.971,178.147 3.857,178.323 3.646 C 178.498 3.435,178.742 3.323,178.864 3.399 C 178.986 3.474,179.086 3.417,179.086 3.271 C 179.086 2.830,178.781 2.942,175.342 4.646 M350.414 12.785 C 377.101 16.068,394.126 43.069,385.591 68.575 C 378.859 88.693,357.929 100.806,337.443 96.439 C 306.100 89.758,292.873 53.254,312.800 28.428 C 321.567 17.505,336.912 11.123,350.414 12.785 M341.192 29.421 C 333.635 31.136,329.896 36.615,330.186 45.548 C 330.342 50.325,330.168 50.807,328.400 50.486 C 324.805 49.833,323.356 50.229,323.356 51.865 C 323.356 53.029,324.327 53.785,327.208 54.863 C 329.917 55.877,330.355 57.071,329.004 59.766 C 327.149 63.466,324.117 66.246,320.280 67.761 C 316.300 69.333,316.918 70.855,322.093 72.222 C 324.619 72.890,324.957 73.144,325.372 74.684 C 325.784 76.213,326.172 76.443,327.955 76.215 C 332.280 75.660,334.059 76.016,337.236 78.071 C 343.135 81.888,347.140 82.046,352.625 78.681 C 357.009 75.991,356.821 76.051,360.795 76.077 C 364.742 76.103,365.025 76.019,365.446 74.704 C 365.903 73.276,366.579 72.694,368.161 72.367 C 373.527 71.257,374.601 69.278,370.646 67.790 C 365.107 65.705,359.646 58.797,361.515 56.240 C 361.701 55.985,363.026 55.203,364.458 54.501 C 367.345 53.087,367.943 52.428,367.408 51.253 C 366.869 50.069,365.626 49.715,363.668 50.188 C 360.500 50.953,360.396 50.808,360.595 45.908 C 360.947 37.242,358.133 32.439,351.188 29.854 C 349.090 29.073,343.746 28.842,341.192 29.421 M179.302 32.196 C 175.479 35.066,175.327 35.901,175.336 53.971 C 175.346 72.486,175.458 73.390,178.081 76.235 C 181.305 79.734,181.327 79.737,199.554 79.841 C 218.437 79.948,218.673 79.914,222.010 76.586 C 223.311 75.289,223.897 74.154,222.712 75.226 C 222.034 75.840,221.486 75.738,220.578 74.828 C 219.756 74.005,219.697 73.719,220.020 72.135 L 220.199 71.259 219.651 72.329 C 217.978 75.596,217.791 75.630,200.376 75.814 C 182.542 76.002,182.189 75.941,180.200 72.336 L 179.467 71.008 179.390 64.997 C 179.229 52.480,179.662 39.080,180.263 37.946 C 180.796 36.943,182.027 35.642,182.968 35.087 L 183.469 34.791 182.968 34.917 C 181.152 35.371,181.168 35.373,180.243 34.524 C 179.168 33.537,179.151 33.405,179.955 32.220 C 180.295 31.719,180.549 31.312,180.518 31.316 C 180.488 31.320,179.941 31.716,179.302 32.196 M191.303 45.383 C 183.108 53.386,188.075 66.973,199.499 67.802 C 203.588 68.098,208.323 65.878,210.690 62.555 L 211.191 61.850 210.257 62.484 C 209.070 63.290,209.081 63.291,207.999 62.209 C 207.072 61.281,207.010 60.914,207.540 59.487 C 207.642 59.211,207.337 59.490,206.861 60.105 C 203.486 64.478,197.826 64.868,193.951 60.997 C 190.124 57.173,190.706 51.093,195.194 47.992 C 195.771 47.593,196.054 47.333,195.822 47.414 C 193.342 48.277,191.034 46.439,192.526 44.790 C 193.511 43.702,192.544 44.170,191.303 45.383 M173.676 103.845 C 173.782 104.121,173.677 104.109,173.192 103.792 C 172.448 103.304,172.414 103.199,173.057 103.367 C 173.323 103.436,173.602 103.652,173.676 103.845 M178.281 106.238 C 178.160 106.546,178.324 106.730,178.915 106.951 C 179.353 107.114,180.138 107.426,180.660 107.642 C 181.407 107.953,181.671 107.971,181.912 107.729 C 182.152 107.487,182.124 107.457,181.778 107.589 C 181.516 107.689,181.340 107.638,181.340 107.463 C 181.340 107.303,181.230 107.240,181.095 107.323 C 180.960 107.406,180.593 107.333,180.281 107.159 C 179.968 106.986,179.627 106.868,179.524 106.897 C 179.421 106.927,179.336 106.826,179.336 106.673 C 179.336 106.521,179.174 106.458,178.976 106.534 C 178.763 106.616,178.581 106.499,178.531 106.248 C 178.452 105.857,178.432 105.856,178.281 106.238 M183.097 108.200 C 182.865 108.344,182.930 108.447,183.330 108.574 C 184.000 108.787,184.153 108.678,183.731 108.290 C 183.559 108.132,183.274 108.091,183.097 108.200 M189.668 110.129 C 189.909 110.192,190.304 110.192,190.545 110.129 C 190.786 110.066,190.589 110.014,190.106 110.014 C 189.624 110.014,189.427 110.066,189.668 110.129 M195.116 110.734 C 194.413 110.861,194.550 110.899,195.805 110.925 C 196.666 110.943,197.370 110.914,197.370 110.861 C 197.370 110.662,195.960 110.582,195.116 110.734 M204.383 110.708 L 203.256 110.883 204.306 110.920 C 204.883 110.941,205.425 110.845,205.510 110.708 C 205.595 110.570,205.630 110.474,205.588 110.495 C 205.545 110.515,205.003 110.611,204.383 110.708 " stroke="none" fill="#f5ac2e" fill-rule="evenodd"></path><path id="path2" d="M256.074 54.978 C 256.074 56.493,256.115 57.081,256.165 56.284 C 256.215 55.487,256.215 54.247,256.164 53.529 C 256.114 52.811,256.073 53.463,256.074 54.978 M13.024 92.549 C 13.492 93.031,13.930 93.425,13.999 93.425 C 14.068 93.425,13.742 93.031,13.275 92.549 C 12.808 92.066,12.369 91.672,12.300 91.672 C 12.231 91.672,12.557 92.066,13.024 92.549 M240.187 94.114 L 239.324 95.053 240.263 94.190 C 241.137 93.387,241.317 93.175,241.126 93.175 C 241.084 93.175,240.662 93.597,240.187 94.114 M17.032 96.556 C 17.499 97.038,17.938 97.433,18.007 97.433 C 18.076 97.433,17.750 97.038,17.282 96.556 C 16.815 96.074,16.376 95.679,16.307 95.679 C 16.239 95.679,16.565 96.074,17.032 96.556 M195.241 137.010 C 194.828 137.133,193.419 137.344,192.110 137.478 C 189.650 137.731,186.152 138.458,183.970 139.169 C 181.022 140.129,179.620 140.647,178.169 141.311 C 177.320 141.699,176.545 142.016,176.446 142.016 C 176.016 142.016,170.154 145.408,168.001 146.903 C 158.440 153.541,150.652 163.854,147.102 174.577 C 146.897 175.197,146.626 175.930,146.500 176.205 C 146.374 176.481,146.162 177.214,146.029 177.833 C 145.897 178.453,145.618 179.705,145.411 180.615 C 142.620 192.853,144.450 208.064,149.914 218.034 C 150.216 218.585,150.831 219.712,151.281 220.539 C 157.680 232.293,170.051 242.357,183.093 246.422 C 183.575 246.572,184.525 246.868,185.204 247.079 C 185.883 247.291,186.749 247.464,187.129 247.464 C 187.509 247.464,188.137 247.587,188.525 247.737 C 192.413 249.240,209.011 249.314,211.398 247.839 C 211.550 247.745,212.260 247.573,212.976 247.458 C 217.346 246.752,225.361 243.383,230.307 240.172 C 234.561 237.410,240.387 232.439,240.036 231.871 C 239.946 231.726,239.984 231.676,240.120 231.760 C 240.801 232.181,246.232 225.254,248.707 220.806 C 250.068 218.360,251.722 214.991,251.722 214.665 C 251.722 214.494,251.877 214.055,252.067 213.689 C 253.146 211.611,254.399 207.388,255.088 203.507 C 255.308 202.267,255.620 200.689,255.781 200.000 C 256.175 198.316,256.179 187.644,255.786 185.974 C 255.624 185.285,255.310 183.651,255.089 182.342 C 254.867 181.033,254.534 179.455,254.350 178.835 C 253.141 174.771,252.637 173.261,252.208 172.420 C 251.941 171.895,251.722 171.367,251.722 171.246 C 251.722 170.973,249.484 166.419,248.436 164.559 C 245.485 159.322,240.485 153.500,235.319 149.284 C 232.738 147.178,228.637 144.483,228.243 144.634 C 228.055 144.707,227.968 144.658,228.049 144.527 C 228.209 144.269,226.766 143.465,223.419 141.948 C 217.813 139.406,213.439 138.142,207.514 137.350 C 204.074 136.890,196.360 136.676,195.241 137.010 M208.265 151.035 C 241.913 158.128,254.233 198.834,230.064 223.059 C 203.426 249.760,157.679 230.665,157.719 192.862 C 157.747 166.358,182.762 145.658,208.265 151.035 M197.276 167.703 C 182.036 170.731,173.390 186.682,179.498 200.501 C 179.985 201.603,180.505 202.798,180.652 203.156 C 180.881 203.712,180.634 204.664,178.972 209.626 C 177.569 213.812,177.099 215.521,177.294 215.716 C 177.592 216.014,178.060 215.890,185.059 213.657 C 189.748 212.160,189.873 212.158,193.272 213.492 C 212.982 221.231,232.403 200.373,223.405 181.129 C 218.814 171.311,207.744 165.623,197.276 167.703 M204.501 171.083 C 219.884 173.306,227.173 191.129,217.768 203.522 C 212.004 211.115,201.560 213.556,192.666 209.388 C 190.087 208.179,190.391 208.184,186.808 209.302 C 182.632 210.604,182.496 210.455,183.970 206.171 C 185.053 203.023,185.068 203.353,183.735 200.842 C 175.898 186.081,188.026 168.702,204.501 171.083 M192.458 180.815 C 190.025 182.299,189.302 185.984,190.812 189.211 C 195.614 199.473,208.990 205.876,213.087 199.875 C 214.460 197.864,213.858 196.640,210.811 195.252 C 208.207 194.065,207.867 194.093,206.464 195.617 C 204.709 197.522,202.649 197.002,199.205 193.783 C 196.154 190.933,195.657 189.673,196.874 187.877 C 197.826 186.471,197.813 186.082,196.715 183.340 C 195.505 180.315,194.376 179.646,192.458 180.815 " stroke="none" fill="#2ba43b" fill-rule="evenodd"></path><path id="path3" d="M50.021 12.898 C 8.035 19.748,-0.993 74.015,36.718 92.868 C 71.663 110.338,109.386 73.800,93.566 37.805 C 86.188 21.017,67.117 10.109,50.021 12.898 M196.118 12.877 C 157.026 18.309,144.113 66.477,175.703 89.034 C 204.081 109.298,242.324 89.748,242.323 54.978 C 242.323 29.773,220.120 9.542,196.118 12.877 M340.879 12.890 C 325.934 15.066,313.528 23.971,307.457 36.882 C 295.729 61.824,310.238 90.640,337.443 96.439 C 368.879 103.140,395.908 72.213,385.583 41.357 C 379.324 22.650,359.695 10.151,340.879 12.890 M66.892 27.811 C 67.342 28.052,67.376 28.375,67.376 32.311 C 67.376 37.380,67.621 37.070,63.623 37.070 C 59.348 37.070,58.741 37.648,58.907 41.571 C 59.009 44.009,59.130 44.074,63.526 44.079 C 67.931 44.084,67.725 43.608,66.828 51.722 C 66.469 54.970,66.722 54.780,62.618 54.892 C 60.228 54.958,59.025 55.089,58.805 55.309 C 58.555 55.559,58.470 58.486,58.418 68.704 C 58.358 80.598,58.314 81.807,57.932 82.091 C 57.140 82.682,48.456 82.520,47.840 81.904 C 47.352 81.416,47.339 81.069,47.339 68.534 C 47.339 53.724,47.625 55.105,44.527 54.944 C 41.745 54.800,41.828 54.962,41.828 49.687 C 41.828 43.996,41.755 44.158,44.404 44.046 C 47.303 43.924,47.338 43.883,47.343 40.608 C 47.355 33.182,50.372 28.785,56.105 27.838 C 58.064 27.514,66.299 27.494,66.892 27.811 M351.188 29.854 C 358.133 32.439,360.947 37.242,360.595 45.908 C 360.396 50.808,360.500 50.953,363.668 50.188 C 365.626 49.715,366.869 50.069,367.408 51.253 C 367.943 52.428,367.345 53.087,364.458 54.501 C 363.026 55.203,361.701 55.985,361.515 56.240 C 359.646 58.797,365.107 65.705,370.646 67.790 C 374.601 69.278,373.527 71.257,368.161 72.367 C 366.579 72.694,365.903 73.276,365.446 74.704 C 365.025 76.019,364.742 76.103,360.795 76.077 C 356.821 76.051,357.009 75.991,352.625 78.681 C 347.140 82.046,343.135 81.888,337.236 78.071 C 334.059 76.016,332.280 75.660,327.955 76.215 C 326.172 76.443,325.784 76.213,325.372 74.684 C 324.957 73.144,324.619 72.890,322.093 72.222 C 316.918 70.855,316.300 69.333,320.280 67.761 C 324.117 66.246,327.149 63.466,329.004 59.766 C 330.355 57.071,329.917 55.877,327.208 54.863 C 324.327 53.785,323.356 53.029,323.356 51.865 C 323.356 50.229,324.805 49.833,328.400 50.486 C 330.168 50.807,330.342 50.325,330.186 45.548 C 329.931 37.685,332.362 33.147,338.311 30.384 C 341.548 28.882,347.875 28.621,351.188 29.854 M217.413 30.566 C 220.431 31.437,223.001 33.793,224.235 36.819 C 225.083 38.900,225.260 69.943,224.438 72.615 C 223.565 75.455,221.149 77.994,218.159 79.213 L 216.781 79.775 200.626 79.775 C 185.681 79.775,184.358 79.740,182.968 79.316 C 178.855 78.061,176.136 74.852,175.584 70.604 C 175.088 66.780,175.267 39.409,175.801 37.483 C 176.867 33.640,180.122 30.749,184.125 30.090 C 186.934 29.628,215.582 30.038,217.413 30.566 M184.822 34.564 C 182.797 34.913,181.207 36.116,180.187 38.071 C 179.665 39.073,179.241 53.388,179.390 64.997 L 179.467 71.008 180.200 72.336 C 182.189 75.941,182.542 76.002,200.376 75.814 C 216.935 75.639,216.639 75.672,218.564 73.747 C 220.438 71.873,220.413 72.131,220.413 54.774 C 220.413 36.729,220.423 36.789,217.068 34.994 C 215.974 34.410,187.893 34.035,184.822 34.564 M215.314 38.731 C 216.345 39.220,216.907 40.201,216.907 41.510 C 216.907 44.025,213.900 45.257,212.003 43.519 C 209.417 41.149,212.133 37.222,215.314 38.731 M203.893 42.590 C 210.059 44.373,214.083 51.017,212.834 57.355 C 210.432 69.547,194.103 71.658,188.590 60.488 C 183.549 50.273,192.849 39.395,203.893 42.590 M198.461 46.584 C 191.658 48.018,189.108 56.158,193.947 60.992 C 198.303 65.345,204.989 64.200,207.704 58.637 C 210.729 52.439,205.156 45.172,198.461 46.584 M52.348 150.549 C 32.642 152.006,15.867 167.513,13.145 186.788 C 8.103 222.492,47.517 248.116,77.709 228.763 C 95.204 217.549,102.008 195.011,93.690 175.831 C 87.620 161.836,74.258 152.132,58.860 150.537 C 56.253 150.267,56.157 150.267,52.348 150.549 M196.869 150.688 C 153.950 156.021,143.709 212.031,182.217 230.825 C 215.475 247.058,251.662 215.373,240.416 179.867 C 234.651 161.667,214.920 148.445,196.869 150.688 M342.768 150.703 C 306.247 153.866,290.365 198.020,316.648 223.317 C 337.784 243.661,372.368 236.783,384.225 209.879 C 396.884 181.158,373.672 148.026,342.768 150.703 M206.073 167.540 C 225.150 171.238,232.443 194.084,218.970 207.940 C 211.965 215.144,201.874 217.192,192.226 213.368 L 189.713 212.372 186.591 213.366 C 184.874 213.913,182.142 214.786,180.520 215.306 C 176.185 216.696,176.252 216.907,178.730 209.665 C 180.480 204.549,180.671 203.817,180.413 203.200 C 177.974 197.353,177.655 196.194,177.412 192.308 C 176.460 177.039,190.864 164.592,206.073 167.540 M330.840 170.896 C 333.754 172.824,334.131 176.639,331.654 179.120 C 328.084 182.696,322.506 180.274,322.552 175.167 C 322.589 171.060,327.367 168.598,330.840 170.896 M197.778 171.460 C 184.401 174.118,177.546 188.534,183.890 200.665 L 185.196 203.162 184.270 205.976 C 182.805 210.426,182.759 210.375,186.999 209.022 C 190.381 207.942,190.133 207.937,192.650 209.140 C 206.222 215.628,221.722 206.093,221.756 191.234 C 221.785 178.614,210.133 169.005,197.778 171.460 M71.259 173.037 C 71.947 173.347,73.222 174.064,74.092 174.629 C 75.895 175.803,76.422 175.784,79.819 174.425 C 82.362 173.408,82.443 174.332,80.060 177.160 C 79.069 178.336,79.081 179.084,80.085 178.716 C 80.829 178.444,82.905 178.287,82.905 178.504 C 82.905 178.944,81.640 180.454,80.105 181.843 L 78.572 183.232 78.356 186.231 C 76.905 206.356,58.575 220.075,39.138 215.582 C 33.424 214.261,29.000 211.917,31.829 211.709 C 36.908 211.334,42.526 209.498,44.178 207.673 C 44.654 207.146,44.006 206.387,43.081 206.387 C 41.308 206.387,37.152 203.253,36.043 201.079 C 35.369 199.757,35.533 199.460,37.052 199.251 C 38.761 199.016,38.663 198.705,36.418 197.237 C 33.444 195.293,31.160 191.744,31.359 189.375 C 31.442 188.388,31.527 188.365,33.751 188.741 C 35.151 188.977,35.147 188.617,33.728 186.790 C 31.461 183.871,30.639 179.592,31.744 176.457 C 32.354 174.726,32.749 174.745,34.756 176.599 C 40.106 181.542,45.741 184.406,52.320 185.529 C 55.674 186.101,55.683 186.095,55.890 183.067 C 56.426 175.223,64.461 169.979,71.259 173.037 M195.642 180.768 C 196.193 181.340,197.871 185.420,197.871 186.189 C 197.871 186.511,197.535 187.271,197.124 187.877 C 196.713 188.483,196.375 189.246,196.373 189.572 C 196.362 191.013,199.846 194.565,202.643 195.965 C 204.695 196.991,204.875 196.961,206.425 195.336 C 207.858 193.833,208.193 193.814,210.933 195.081 C 214.024 196.509,214.682 197.887,213.290 200.012 C 207.676 208.580,186.001 192.405,190.451 182.968 C 191.667 180.390,194.229 179.304,195.642 180.768 M333.020 185.708 C 333.579 186.474,333.546 214.548,332.985 215.348 C 332.357 216.244,323.320 216.214,322.730 215.313 C 322.051 214.277,322.289 185.948,322.981 185.439 C 323.828 184.816,332.539 185.049,333.020 185.708 M347.346 185.487 C 347.654 185.703,347.902 186.141,347.902 186.468 C 347.902 188.076,348.227 188.147,350.148 186.960 C 355.119 183.892,363.402 184.932,366.183 188.974 C 368.077 191.727,368.441 194.526,368.441 206.358 C 368.441 216.930,368.952 215.905,363.682 215.905 C 358.415 215.905,358.923 216.908,358.923 206.502 C 358.923 197.502,358.788 196.371,357.508 194.677 C 355.429 191.924,350.831 192.511,349.172 195.742 L 348.528 196.994 348.403 206.036 C 348.304 213.189,348.206 215.164,347.934 215.491 C 347.327 216.221,340.051 216.098,339.526 215.348 C 339.001 214.599,338.928 186.457,339.449 185.800 C 340.094 184.987,346.281 184.741,347.346 185.487 " stroke="none" fill="#f9f8f8" fill-rule="evenodd"></path><path id="path4" d="M189.731 0.244 C 189.455 0.359,188.975 0.395,188.663 0.324 C 188.351 0.253,187.911 0.348,187.685 0.536 C 187.459 0.723,187.234 0.844,187.185 0.803 C 187.048 0.689,185.294 1.043,184.596 1.326 C 184.252 1.465,183.749 1.621,183.480 1.673 C 183.210 1.724,182.929 1.848,182.854 1.947 C 182.779 2.047,182.436 2.160,182.091 2.199 C 181.747 2.237,181.430 2.372,181.386 2.498 C 181.343 2.624,181.160 2.671,180.980 2.601 C 180.800 2.532,180.495 2.634,180.303 2.826 C 180.110 3.019,179.757 3.148,179.519 3.114 C 179.281 3.079,179.086 3.159,179.086 3.293 C 179.086 3.427,178.986 3.474,178.864 3.399 C 178.742 3.323,178.498 3.435,178.323 3.646 C 178.147 3.857,177.850 3.971,177.661 3.899 C 177.473 3.827,177.128 3.991,176.894 4.263 C 176.661 4.536,176.298 4.761,176.087 4.764 C 175.551 4.772,174.502 5.623,174.431 6.108 C 174.345 6.691,174.850 6.607,175.006 6.011 C 175.244 5.100,175.488 5.491,175.436 6.700 C 175.408 7.354,175.439 7.748,175.504 7.575 C 175.569 7.402,175.725 7.324,175.852 7.402 C 175.990 7.488,175.988 7.720,175.845 7.986 C 175.713 8.233,175.634 10.777,175.665 13.760 C 175.709 17.911,175.650 19.120,175.400 19.216 C 175.223 19.284,175.078 19.419,175.078 19.515 C 175.078 19.611,173.722 21.093,172.063 22.807 C 169.160 25.808,165.671 30.115,164.735 31.852 C 164.303 32.654,164.303 32.662,164.735 32.065 C 179.206 12.041,204.209 6.759,223.535 19.642 C 246.679 35.069,248.992 68.333,228.203 86.768 C 209.803 103.083,180.780 99.758,166.064 79.649 C 163.669 76.376,163.643 76.577,166.015 80.025 C 167.778 82.587,168.262 83.151,171.817 86.794 C 175.886 90.963,176.124 91.712,175.651 98.873 C 175.540 100.560,175.523 101.941,175.614 101.941 C 175.706 101.941,175.769 102.329,175.756 102.802 C 175.742 103.276,175.641 103.607,175.530 103.539 C 175.419 103.470,175.329 103.538,175.329 103.688 C 175.329 103.882,175.186 103.886,174.843 103.703 C 174.496 103.517,174.306 103.525,174.178 103.732 C 174.074 103.901,174.108 103.955,174.260 103.861 C 174.403 103.772,174.662 103.870,174.835 104.079 C 175.097 104.394,175.081 104.431,174.738 104.300 C 174.512 104.213,174.327 104.208,174.327 104.289 C 174.327 104.452,176.062 105.377,176.456 105.424 C 177.084 105.499,177.579 105.753,177.463 105.940 C 177.393 106.054,177.523 106.219,177.752 106.307 C 177.982 106.395,178.261 106.322,178.373 106.145 C 178.524 105.907,178.578 105.936,178.581 106.254 C 178.583 106.533,178.717 106.634,178.961 106.540 C 179.167 106.461,179.336 106.521,179.336 106.673 C 179.336 106.826,179.421 106.927,179.524 106.897 C 179.627 106.868,179.968 106.986,180.281 107.159 C 180.593 107.333,180.960 107.406,181.095 107.323 C 181.230 107.240,181.340 107.303,181.340 107.463 C 181.340 107.625,181.514 107.689,181.729 107.606 C 181.943 107.524,182.056 107.557,181.981 107.678 C 181.836 107.913,183.065 108.315,183.278 108.102 C 183.347 108.033,183.567 108.140,183.767 108.340 C 184.105 108.678,184.541 108.776,185.671 108.770 C 185.917 108.769,186.055 108.832,185.976 108.910 C 185.747 109.139,188.180 109.693,188.729 109.536 C 189.005 109.457,189.138 109.490,189.024 109.609 C 188.780 109.866,191.837 110.396,194.991 110.644 C 201.452 111.152,208.487 110.648,213.525 109.316 C 214.352 109.098,215.338 108.858,215.717 108.783 C 216.096 108.708,216.406 108.540,216.406 108.410 C 216.406 108.280,216.495 108.229,216.605 108.297 C 216.814 108.426,218.665 107.855,220.789 107.006 C 225.690 105.046,233.701 100.372,233.479 99.601 C 233.434 99.442,233.477 99.392,233.575 99.490 C 233.829 99.744,234.736 99.212,234.553 98.917 C 234.470 98.782,234.495 98.702,234.609 98.738 C 234.933 98.840,236.439 97.629,236.290 97.387 C 236.216 97.267,236.263 97.201,236.394 97.239 C 236.696 97.326,238.197 96.014,238.197 95.663 C 238.197 95.518,238.294 95.460,238.414 95.533 C 238.533 95.607,238.843 95.419,239.102 95.114 C 239.568 94.568,239.568 94.566,239.073 94.932 C 238.610 95.276,238.598 95.271,238.914 94.868 C 239.102 94.629,239.342 94.486,239.449 94.552 C 239.821 94.782,244.710 88.980,244.540 88.510 C 244.484 88.356,244.679 88.166,244.974 88.089 C 245.269 88.012,245.444 87.840,245.362 87.707 C 245.280 87.575,245.388 87.399,245.603 87.317 C 245.817 87.234,245.930 87.065,245.853 86.941 C 245.776 86.817,245.889 86.648,246.104 86.565 C 246.318 86.483,246.431 86.314,246.354 86.190 C 246.277 86.065,246.390 85.896,246.605 85.814 C 246.819 85.732,246.925 85.551,246.839 85.412 C 246.753 85.273,246.802 85.160,246.948 85.160 C 247.094 85.160,247.214 85.047,247.214 84.909 C 247.214 84.771,247.443 84.429,247.724 84.149 C 248.004 83.868,248.167 83.530,248.085 83.397 C 248.002 83.265,248.061 83.156,248.215 83.156 C 248.369 83.156,248.426 83.043,248.341 82.905 C 248.255 82.768,248.302 82.655,248.443 82.655 C 248.585 82.655,248.629 82.467,248.541 82.238 C 248.433 81.958,248.477 81.881,248.674 82.002 C 248.850 82.111,248.967 82.027,248.967 81.793 C 248.967 81.578,249.086 81.403,249.232 81.403 C 249.378 81.403,249.428 81.290,249.343 81.152 C 249.257 81.014,249.314 80.902,249.468 80.902 C 249.622 80.902,249.678 80.789,249.593 80.651 C 249.508 80.513,249.564 80.401,249.718 80.401 C 249.872 80.401,249.929 80.288,249.843 80.150 C 249.758 80.013,249.815 79.900,249.969 79.900 C 250.123 79.900,250.179 79.787,250.094 79.649 C 250.009 79.512,250.065 79.399,250.219 79.399 C 250.373 79.399,250.430 79.286,250.344 79.148 C 250.259 79.011,250.316 78.898,250.470 78.898 C 250.624 78.898,250.680 78.785,250.595 78.647 C 250.510 78.510,250.553 78.397,250.691 78.397 C 250.829 78.397,250.899 78.174,250.846 77.901 C 250.794 77.628,250.871 77.431,251.017 77.463 C 251.164 77.494,251.341 77.364,251.410 77.172 C 251.497 76.932,251.430 76.887,251.191 77.028 C 251.001 77.139,251.049 76.998,251.299 76.713 C 251.648 76.314,251.677 76.165,251.424 76.063 C 251.230 75.986,251.301 75.922,251.597 75.908 C 252.014 75.889,252.035 75.844,251.722 75.642 C 251.397 75.432,251.402 75.399,251.761 75.395 C 252.051 75.393,252.137 75.242,252.046 74.893 C 251.963 74.578,252.063 74.339,252.318 74.241 C 252.540 74.156,252.663 73.993,252.593 73.880 C 252.523 73.766,252.575 73.605,252.709 73.522 C 252.843 73.439,252.887 73.202,252.808 72.995 C 252.728 72.787,252.874 72.377,253.132 72.083 C 253.390 71.789,253.461 71.630,253.290 71.730 C 253.081 71.852,253.028 71.785,253.129 71.522 C 253.211 71.308,253.397 71.133,253.541 71.133 C 253.685 71.133,253.637 70.936,253.433 70.695 C 253.038 70.227,253.098 69.272,253.506 69.525 C 253.656 69.617,253.624 69.836,253.425 70.091 C 253.133 70.465,253.145 70.472,253.544 70.158 C 253.788 69.967,253.934 69.755,253.867 69.688 C 253.800 69.622,253.906 69.183,254.102 68.713 C 254.357 68.105,254.372 67.911,254.155 68.041 C 253.955 68.161,253.965 68.083,254.186 67.811 C 254.370 67.584,254.448 67.281,254.359 67.137 C 254.270 66.993,254.323 66.875,254.477 66.875 C 254.631 66.875,254.683 66.755,254.592 66.608 C 254.501 66.461,254.241 66.411,254.013 66.497 C 253.682 66.623,253.663 66.592,253.914 66.339 C 254.086 66.166,254.228 65.736,254.231 65.385 C 254.234 64.880,254.285 64.825,254.479 65.122 C 254.665 65.410,254.710 65.336,254.671 64.809 C 254.642 64.430,254.502 64.116,254.360 64.111 C 254.218 64.106,254.372 63.953,254.703 63.769 C 255.280 63.449,255.285 63.424,254.828 63.133 C 254.433 62.881,254.426 62.853,254.790 62.966 C 255.031 63.041,255.229 62.993,255.229 62.860 C 255.229 62.727,255.135 62.617,255.020 62.617 C 254.905 62.617,254.811 62.453,254.811 62.253 C 254.811 62.052,254.897 61.941,255.003 62.006 C 255.108 62.071,255.265 62.009,255.352 61.868 C 255.439 61.727,255.335 61.544,255.119 61.462 C 254.626 61.272,254.609 60.948,255.092 60.948 C 255.293 60.948,255.399 61.042,255.328 61.156 C 255.257 61.271,255.290 61.365,255.402 61.365 C 255.513 61.365,255.604 60.869,255.604 60.262 C 255.604 59.655,255.520 59.211,255.416 59.275 C 255.100 59.470,255.207 59.168,255.590 58.785 C 255.876 58.499,255.920 57.943,255.802 56.122 C 255.720 54.855,255.571 53.953,255.470 54.116 C 255.369 54.279,255.152 54.368,254.989 54.314 C 254.801 54.251,254.929 53.957,255.335 53.519 C 255.789 53.030,255.979 52.549,255.976 51.897 C 255.973 51.210,255.910 51.067,255.731 51.346 C 255.599 51.553,255.547 51.905,255.617 52.129 C 255.697 52.386,255.568 52.582,255.269 52.661 C 254.690 52.812,254.663 52.127,255.229 51.667 C 255.548 51.408,255.550 51.361,255.243 51.354 C 254.974 51.348,254.998 51.262,255.338 51.013 C 255.695 50.752,255.737 50.575,255.532 50.193 C 255.352 49.857,255.352 49.561,255.529 49.244 C 255.715 48.913,255.703 48.729,255.487 48.596 C 255.321 48.494,255.195 48.338,255.207 48.250 C 255.286 47.660,255.207 47.485,255.006 47.804 C 254.873 48.013,254.730 48.047,254.635 47.893 C 254.550 47.755,254.648 47.577,254.854 47.498 C 255.060 47.419,255.229 47.232,255.229 47.081 C 255.229 46.930,255.090 46.892,254.915 46.996 C 254.733 47.106,254.760 46.988,254.978 46.714 C 255.323 46.282,255.314 46.258,254.867 46.426 C 254.392 46.605,254.391 46.597,254.844 46.096 C 255.377 45.507,255.185 45.102,254.603 45.585 C 254.276 45.856,254.240 45.842,254.373 45.496 C 254.460 45.270,254.621 45.085,254.732 45.085 C 254.843 45.085,254.896 44.887,254.850 44.646 C 254.804 44.405,254.757 44.123,254.747 44.020 C 254.736 43.917,254.601 43.832,254.446 43.832 C 254.258 43.832,254.274 43.976,254.497 44.271 C 254.778 44.642,254.776 44.662,254.480 44.398 C 254.102 44.061,253.886 43.246,254.231 43.459 C 254.674 43.733,254.752 43.030,254.348 42.413 C 254.115 42.057,254.049 41.844,254.201 41.938 C 254.596 42.182,254.546 41.966,253.970 40.941 C 253.691 40.444,253.578 40.109,253.720 40.197 C 253.861 40.284,253.976 40.248,253.976 40.117 C 253.976 39.986,253.794 39.809,253.572 39.723 C 253.227 39.591,253.218 39.507,253.510 39.147 C 253.800 38.790,253.798 38.759,253.498 38.939 C 253.227 39.103,253.178 39.029,253.285 38.621 C 253.365 38.314,253.272 37.964,253.064 37.792 C 252.867 37.628,252.738 37.257,252.777 36.969 C 252.820 36.654,252.723 36.468,252.536 36.506 C 252.364 36.540,252.223 36.456,252.223 36.318 C 252.223 36.180,252.364 36.066,252.536 36.064 C 252.777 36.061,252.774 36.012,252.523 35.853 C 252.344 35.740,252.179 35.403,252.157 35.106 C 252.135 34.808,252.021 34.565,251.904 34.565 C 251.788 34.565,251.762 34.452,251.847 34.314 C 251.932 34.177,251.864 34.064,251.695 34.064 C 251.526 34.064,251.463 33.988,251.556 33.896 C 251.648 33.804,251.554 33.542,251.348 33.314 C 251.141 33.086,250.947 32.598,250.917 32.229 C 250.886 31.861,250.767 31.559,250.651 31.559 C 250.535 31.559,250.502 31.458,250.579 31.335 C 250.655 31.212,250.537 31.042,250.317 30.957 C 250.089 30.870,249.978 30.643,250.060 30.430 C 250.139 30.224,250.088 30.056,249.946 30.056 C 249.804 30.056,249.758 29.944,249.843 29.806 C 249.929 29.668,249.872 29.555,249.718 29.555 C 249.564 29.555,249.508 29.443,249.593 29.305 C 249.678 29.167,249.622 29.054,249.468 29.054 C 249.314 29.054,249.257 28.942,249.343 28.804 C 249.428 28.666,249.378 28.554,249.232 28.554 C 249.086 28.554,248.995 28.413,249.029 28.240 C 249.064 28.068,248.937 27.960,248.748 28.000 C 248.529 28.047,248.458 27.933,248.553 27.687 C 248.634 27.475,248.585 27.301,248.443 27.301 C 248.302 27.301,248.255 27.188,248.341 27.051 C 248.426 26.913,248.376 26.800,248.230 26.800 C 248.084 26.800,247.965 26.571,247.965 26.291 C 247.965 26.012,247.797 25.718,247.591 25.639 C 247.385 25.560,247.279 25.394,247.356 25.269 C 247.433 25.145,247.320 24.976,247.106 24.894 C 246.891 24.811,246.778 24.642,246.855 24.518 C 246.932 24.394,246.819 24.225,246.605 24.142 C 246.390 24.060,246.277 23.891,246.354 23.767 C 246.431 23.642,246.318 23.473,246.104 23.391 C 245.889 23.309,245.772 23.147,245.843 23.032 C 245.914 22.917,245.808 22.732,245.609 22.620 C 245.409 22.508,245.238 22.304,245.228 22.167 C 245.197 21.700,244.195 20.539,243.825 20.539 C 243.622 20.539,243.456 20.419,243.456 20.273 C 243.456 20.127,243.597 20.079,243.770 20.165 C 243.942 20.252,243.688 19.962,243.206 19.521 C 242.724 19.080,242.498 18.802,242.705 18.902 C 242.912 19.003,242.443 18.454,241.663 17.683 C 240.883 16.912,240.301 16.281,240.369 16.281 C 240.438 16.281,240.088 15.886,239.591 15.404 C 239.095 14.922,238.584 14.527,238.457 14.527 C 238.330 14.527,238.146 14.397,238.047 14.238 C 237.928 14.044,237.985 14.015,238.221 14.149 C 238.414 14.259,238.071 13.911,237.457 13.374 C 236.844 12.837,236.262 12.398,236.163 12.398 C 236.065 12.398,235.890 12.296,235.775 12.170 C 235.653 12.036,235.722 12.018,235.942 12.126 C 236.149 12.227,235.987 12.026,235.581 11.680 C 235.176 11.334,234.725 11.118,234.579 11.201 C 234.434 11.284,234.392 11.265,234.487 11.160 C 235.041 10.543,222.904 3.176,222.126 3.657 C 222.010 3.728,221.916 3.667,221.916 3.521 C 221.916 3.375,221.797 3.256,221.652 3.256 C 221.507 3.256,220.915 3.042,220.337 2.780 C 219.759 2.518,219.004 2.264,218.660 2.216 C 218.316 2.168,217.973 2.047,217.898 1.947 C 217.823 1.847,217.485 1.735,217.146 1.697 C 216.808 1.659,216.461 1.532,216.375 1.414 C 216.288 1.296,215.894 1.168,215.498 1.131 C 215.102 1.094,214.445 0.931,214.038 0.769 C 212.260 0.062,191.254 -0.392,189.731 0.244 M44.959 13.676 C 22.584 19.025,8.467 41.416,13.313 63.870 C 16.740 79.747,29.057 92.429,44.709 96.196 C 47.678 96.910,47.837 96.750,44.959 95.944 C 2.480 84.048,2.336 25.418,44.758 14.038 C 47.524 13.297,47.673 13.027,44.959 13.676 M184.721 29.983 C 182.064 30.328,180.186 31.366,179.583 32.821 C 179.183 33.785,180.677 35.490,181.678 35.212 C 185.805 34.063,214.990 33.884,217.068 34.994 C 218.380 35.696,219.746 37.281,220.123 38.537 C 220.517 39.853,220.527 69.057,220.134 71.384 C 219.707 73.911,219.714 73.963,220.578 74.828 C 222.056 76.309,223.752 75.243,224.529 72.343 C 225.272 69.572,225.016 38.736,224.235 36.819 C 223.001 33.793,220.431 31.437,217.413 30.566 C 215.869 30.121,187.548 29.615,184.721 29.983 M212.716 38.693 C 210.733 39.555,210.369 42.021,212.003 43.519 C 213.900 45.257,216.907 44.025,216.907 41.510 C 216.907 39.127,214.869 37.757,212.716 38.693 M198.247 42.090 C 193.632 42.696,190.937 45.207,192.870 47.097 C 193.796 48.002,193.832 48.003,196.418 47.170 C 204.431 44.588,210.408 50.412,207.893 58.351 C 207.175 60.614,207.119 60.987,207.413 61.536 C 209.840 66.071,214.166 58.793,212.818 52.444 C 211.386 45.703,205.043 41.196,198.247 42.090 M255.354 48.842 C 255.439 48.979,255.305 49.094,255.055 49.096 C 254.671 49.099,254.660 49.137,254.978 49.343 C 255.185 49.476,255.232 49.587,255.082 49.589 C 254.672 49.595,254.496 49.334,254.646 48.942 C 254.804 48.532,255.133 48.485,255.354 48.842 M110.547 55.103 C 110.547 56.412,110.590 56.947,110.641 56.293 C 110.693 55.639,110.693 54.568,110.641 53.914 C 110.590 53.259,110.547 53.795,110.547 55.103 M255.610 57.126 C 255.790 57.692,255.657 57.928,255.113 58.008 C 254.905 58.039,254.817 57.917,254.897 57.709 C 254.971 57.515,254.902 57.358,254.745 57.358 C 254.545 57.358,254.556 57.246,254.780 56.991 C 255.225 56.487,255.417 56.518,255.610 57.126 M172.574 103.313 C 172.574 103.354,172.852 103.569,173.192 103.792 C 173.677 104.109,173.782 104.121,173.676 103.845 C 173.564 103.554,172.574 103.076,172.574 103.313 M186.767 152.792 C 158.350 162.236,148.564 197.295,167.910 220.346 C 172.963 226.367,182.344 232.419,188.353 233.535 C 188.835 233.624,188.159 233.304,186.850 232.823 C 148.387 218.688,148.938 165.779,187.685 152.761 C 189.223 152.244,190.313 151.818,190.106 151.814 C 189.900 151.810,188.397 152.250,186.767 152.792 M315.578 163.244 L 314.715 164.183 315.654 163.320 C 316.171 162.845,316.594 162.422,316.594 162.380 C 316.594 162.189,316.382 162.369,315.578 163.244 M303.413 192.862 C 303.413 194.446,303.454 195.094,303.504 194.302 C 303.554 193.510,303.554 192.214,303.504 191.421 C 303.454 190.629,303.413 191.277,303.413 192.862 M315.717 222.668 C 316.951 223.907,318.017 224.922,318.086 224.922 C 318.155 224.922,317.202 223.907,315.967 222.668 C 314.733 221.428,313.667 220.413,313.598 220.413 C 313.530 220.413,314.483 221.428,315.717 222.668 " stroke="none" fill="#9c4792" fill-rule="evenodd"></path></g></svg>